<?xml version="1.0" standalone="no"?>
<!DOCTYPE svg PUBLIC "-//W3C//DTD SVG 20010904//EN"
 "http://www.w3.org/TR/2001/REC-SVG-20010904/DTD/svg10.dtd">
<svg version="1.0" xmlns="http://www.w3.org/2000/svg"
 width="321.000000pt" height="321.000000pt" viewBox="0 0 321.000000 321.000000"
 preserveAspectRatio="xMidYMid meet">
<metadata>
Created by potrace 1.11, written by Peter Selinger 2001-2013
</metadata>
<g transform="translate(0.000000,321.000000) scale(0.100000,-0.100000)"
fill="#000000" stroke="none">
<path d="M833 2090 c-27 -11 -30 -43 -7 -89 15 -31 13 -40 -83 -379 -80 -285
-102 -351 -122 -367 -76 -64 -81 -73 -55 -99 13 -14 63 -16 397 -16 481 0 448
-13 508 203 l32 117 -23 25 c-18 19 -34 25 -65 25 -52 0 -69 -13 -161 -118
-42 -48 -86 -92 -97 -99 -22 -12 -147 -18 -147 -7 0 11 171 610 185 650 9 24
32 54 55 73 44 35 51 64 21 81 -24 12 -407 12 -438 0z"/>
<path d="M1762 2084 c-25 -17 -28 -41 -7 -68 8 -11 15 -31 15 -45 0 -14 -43
-177 -95 -361 l-94 -335 -46 -40 c-50 -44 -53 -54 -27 -78 16 -15 48 -17 241
-17 134 0 230 4 242 10 28 15 23 47 -11 82 -36 36 -37 45 -5 161 47 168 41
157 90 157 55 0 94 -17 101 -45 3 -12 -4 -59 -16 -106 -36 -138 -18 -201 71
-247 38 -20 55 -23 134 -20 105 4 164 30 203 88 32 47 26 72 -20 83 -20 5 -39
15 -42 22 -2 7 2 39 9 72 31 129 8 187 -84 213 -23 6 -19 9 34 24 121 36 203
164 175 274 -15 60 -49 105 -106 138 -81 47 -134 54 -449 54 -247 0 -294 -2
-313 -16z m486 -158 c21 -21 20 -95 -1 -146 -25 -59 -57 -81 -126 -87 -34 -3
-61 -3 -61 1 0 4 14 63 32 132 l31 126 54 -4 c33 -3 61 -12 71 -22z"/>
</g>
</svg>
