<svg width="248" height="241" viewBox="0 0 248 241" fill="none" xmlns="http://www.w3.org/2000/svg">
<g clip-path="url(#clip0)">
</g>
<path d="M26.7185 47.3938C25.6828 46.9301 26.7481 45.7332 25.8852 45.245C26.5545 44.3656 25.9027 43.4989 26.1275 42.5952C25.9806 42.1801 27.3984 42.8512 26.636 41.8258C26.1933 41.1909 26.1467 40.2385 25.9272 39.3106C26.4339 39.1517 26.9405 38.9928 27.6944 38.7117C27.065 38.6264 26.7936 38.5777 26.51 38.4434C26.7711 37.7962 27.1188 37.1367 27.4664 36.4772C27.9108 36.5015 28.4537 36.599 28.9966 36.6965C29.4688 35.6707 29.583 34.6083 28.8707 33.3142C28.5715 34.3156 28.248 35.146 28.0232 36.0497C27.4681 35.8667 27.0116 35.7569 26.5431 35.5617C26.6555 35.1099 28.0007 35.2682 27.0654 34.2672C26.6573 34.4993 26.2613 34.8169 25.8532 35.0491C25.7425 34.8904 25.5454 34.7439 25.6319 34.7317C25.9553 33.9012 26.2787 33.0708 26.6021 32.2404C25.2084 31.7402 24.5082 30.5315 23.8461 28.9688C24.3026 29.0785 24.6605 29.115 25.117 29.2248C25.3159 28.7607 26.1563 28.4674 25.9367 27.5394C25.2693 27.8083 24.5897 27.9917 23.9101 28.175C23.4554 27.4547 23.2704 27.3938 22.7879 27.7236C21.7661 26.7348 23.3846 26.3314 23.3501 25.4644C22.7328 25.4646 22.2884 25.4403 21.844 25.4161C21.87 24.9765 22.4389 24.6344 21.8233 24.024C21.0107 23.2672 20.4834 22.0341 19.6707 21.2773C18.846 20.435 19.0951 19.7023 19.3199 18.7986C18.8876 18.8598 18.5297 18.8233 17.9245 18.909C18.0145 17.6756 17.0168 16.8578 16.5137 15.7957C15.2741 13.2684 13.8858 10.9366 12.4853 8.51933C11.2941 6.33398 9.94206 4.25858 8.76294 2.1587C7.71866 0.388475 6.76084 -1.39399 5.80303 -3.17646C4.48905 -5.60598 3.01425 -7.92555 1.61382 -10.3428C0.557444 -12.1985 -0.585384 -14.042 -1.74032 -15.9709C-2.09647 -16.618 -2.77427 -17.0452 -2.72233 -17.9243C-2.66007 -18.1075 -2.86927 -18.3395 -2.97993 -18.4982C-4.8767 -20.0606 -5.23963 -22.6247 -6.88911 -24.3092C-6.98767 -24.3825 -7.01187 -24.5534 -7.03606 -24.7244C-6.96848 -26.7392 -8.37245 -27.9354 -9.38044 -29.4492C-10.8552 -31.7688 -12.0948 -34.296 -13.1615 -36.8477C-13.4191 -37.4215 -13.5903 -38.0076 -13.9101 -38.3982C-14.23 -38.7889 -14.1297 -39.3262 -14.3631 -39.7291C-14.6951 -40.2052 -15.1135 -40.6691 -15.6063 -41.0352C-16.284 -41.4624 -15.122 -41.9756 -15.824 -42.5737C-16.3168 -42.9399 -16.4499 -43.8801 -16.7939 -44.4416C-17.4579 -45.3939 -17.4664 -46.7004 -18.5505 -47.506C-18.7477 -47.6524 -18.8323 -48.2507 -18.7078 -48.6171C-18.5331 -49.2521 -18.4708 -49.4353 -19.2109 -49.6793C-19.6674 -49.789 -19.899 -50.8025 -20.0701 -51.3885C-20.7063 -53.3909 -22.0844 -55.0267 -22.3868 -57.1635C-23.7406 -58.6283 -23.9324 -60.6064 -24.7173 -62.4133C-24.8642 -62.8285 -25.0977 -63.2313 -25.2446 -63.6465C-25.5264 -64.3912 -25.3015 -65.2949 -26.0156 -65.9785C-26.5326 -66.5156 -25.9861 -67.6391 -26.8731 -68.2982C-27.0702 -68.4447 -26.982 -69.0675 -26.8454 -69.3484C-26.4355 -70.191 -27.1531 -69.6535 -27.2638 -69.8122C-27.473 -70.0442 -27.3606 -70.496 -27.4833 -70.7402C-28.27 -71.9366 -28.6244 -73.1942 -28.645 -74.5862C-28.6379 -77.0283 -29.9156 -79.2015 -30.1558 -81.5214C-30.2526 -82.2052 -30.8802 -82.901 -30.3718 -83.6704C-31.257 -84.9401 -30.4995 -86.4422 -30.9404 -87.6876C-31.1115 -88.2736 -31.7149 -88.7985 -31.6025 -89.2503C-31.3275 -90.4227 -31.5712 -91.5215 -31.642 -92.6449C-31.7128 -93.7683 -31.6972 -94.9039 -31.6815 -96.0395C-31.7057 -96.2104 -31.7299 -96.3813 -31.6556 -96.4791C-30.95 -97.102 -31.5777 -97.7978 -31.3909 -98.3474C-31.1279 -99.6052 -31.5688 -100.851 -31.0344 -102.06C-30.6366 -102.988 -30.3132 -103.818 -29.8549 -104.319C-30.2249 -104.441 -30.595 -104.563 -31.0515 -104.673C-29.9965 -106.566 -30.5203 -109.02 -28.478 -110.791C-28.5385 -111.218 -28.6353 -111.902 -28.72 -112.5C-28.324 -112.818 -27.8294 -113.062 -27.8536 -113.233C-28.023 -114.43 -28.0696 -115.382 -26.4148 -115.529C-26.1554 -115.566 -25.9807 -116.201 -25.4965 -117.141C-26.3991 -116.665 -26.7329 -116.531 -27.3883 -116.176C-26.9161 -117.202 -26.5685 -117.862 -26.2209 -118.521C-25.8733 -119.181 -25.5378 -119.925 -25.0674 -120.341C-24.4483 -120.952 -24.3964 -121.831 -23.7652 -122.356C-23.2084 -122.784 -22.5772 -123.309 -22.1431 -123.98C-21.697 -124.567 -20.9672 -125.019 -20.6317 -125.764C-20.4449 -126.313 -19.506 -126.533 -18.8506 -126.888C-18.6535 -126.741 -18.3699 -126.607 -18.1607 -126.375C-18.3094 -126.18 -18.4581 -125.984 -18.6691 -125.606C-18.1625 -125.764 -17.891 -125.716 -17.6558 -125.923C-16.9503 -126.546 -16.7254 -127.45 -16.402 -128.28C-16.2775 -128.647 -16.165 -129.099 -15.8313 -129.233C-15.4232 -129.465 -14.8802 -129.368 -14.4601 -129.514C-14.1384 -129.734 -14.0623 -130.442 -13.8029 -130.479C-12.5925 -130.65 -11.5895 -131.664 -10.3307 -131.494C-8.46311 -132.63 -6.22905 -132.423 -4.25261 -132.79C-0.484717 -133.585 3.29174 -133.073 6.93155 -132.281C11.1022 -131.476 15.0359 -129.853 18.6843 -127.754C21.2727 -126.29 23.849 -124.911 26.3752 -123.263C29.7763 -121.042 33.4005 -119.113 37.0869 -117.368C38.2212 -116.831 39.48 -116.661 40.6264 -116.039C41.6742 -115.489 42.9451 -115.233 44.2161 -114.977C45.3019 -114.782 46.438 -114.856 47.5862 -114.844C48.4749 -114.795 49.3655 -115.357 50.3269 -114.796C50.524 -114.65 50.9321 -114.882 51.1794 -115.004C51.5131 -115.138 51.8226 -115.444 52.1685 -115.493C57.1468 -116.459 60.9961 -119.794 63.2184 -124.031C64.621 -126.584 65.567 -129.246 66.7845 -131.859C68.5607 -135.511 69.8682 -139.358 71.6443 -143.009C73.0106 -145.818 74.1676 -148.859 75.3488 -151.729C76.741 -154.977 77.7511 -158.433 79.797 -161.426C79.8507 -162.915 81.1251 -163.88 81.4624 -165.236C81.862 -166.775 83.1122 -167.91 83.7954 -169.315C84.6151 -171 85.8291 -172.393 86.8459 -173.932C87.4287 -174.799 88.2086 -175.519 88.5822 -176.618C88.769 -177.168 89.2031 -177.84 89.6976 -178.084C90.7611 -178.67 91.1468 -179.684 91.8281 -180.478C95.1605 -184.35 99.0341 -187.514 103.646 -189.823C105.538 -190.788 107.675 -191.265 109.444 -192.474C111.161 -192.805 112.683 -193.892 114.338 -194.039C115.992 -194.186 117.673 -194.773 119.278 -194.651C121.685 -194.468 124.192 -194.823 126.535 -193.847C129.795 -193.873 135.948 -191.518 138.39 -190.469C141.214 -189.212 143.529 -187.185 145.832 -185.245C147.027 -184.28 148.171 -183.047 148.747 -181.472C149.151 -180.484 149.803 -179.617 150.22 -178.542C150.624 -177.553 150.906 -176.809 150.693 -175.819C150.569 -175.453 151.086 -174.916 151.146 -174.489C151.354 -173.646 151.475 -172.791 151.509 -171.925C151.508 -171.314 150.987 -170.63 151.689 -170.032C151.094 -169.25 151.832 -168.396 151.682 -167.59C151.519 -166.869 151.172 -166.21 151.009 -165.489C150.821 -164.329 150.718 -163.181 150.53 -162.021C150.492 -161.667 150.367 -161.301 150.243 -160.935C149.286 -158.968 149.231 -156.868 148.731 -154.792C148.157 -152.618 147.953 -150.323 147.193 -148.21C146.707 -146.659 146.493 -145.059 146.093 -143.521C145.706 -141.897 145.133 -140.333 144.746 -138.709C144.069 -135.388 142.764 -132.152 141.816 -128.879C140.47 -124.678 139.199 -120.575 137.853 -116.374C135.437 -109.144 133.033 -101.829 130.703 -94.6122C130.167 -92.7926 129.545 -90.9608 129.28 -89.0925C129.142 -88.2011 128.72 -87.4439 128.581 -86.5524C128.417 -85.2214 128.252 -83.8904 128.175 -82.5716C128.147 -81.5215 128.304 -80.4104 128.091 -79.4212C127.629 -77.6994 127.884 -75.9045 127.508 -74.1949C127.157 -72.3143 128.201 -70.5441 129.704 -69.2746C130.319 -68.6643 131.084 -68.2494 131.774 -67.7367C134.372 -65.5762 137.224 -65.3695 140.277 -66.848C141.6 -67.4711 142.899 -68.2652 144.467 -68.4C145.199 -69.4626 146.715 -68.7182 147.545 -69.7075C149.299 -69.7813 150.967 -70.4534 152.868 -70.1121C154.139 -69.8561 155.57 -69.71 156.929 -70.0767C160.5 -71.0181 164.24 -70.7628 167.896 -71.1058C170.427 -71.2898 173.106 -71.0586 175.71 -70.7297C177.512 -70.4616 179.177 -69.9127 180.892 -69.6324C182.804 -69.2056 184.629 -68.156 186.429 -67.2774C190.214 -65.4592 193.255 -62.6639 195.987 -59.5632C197.98 -57.317 199.739 -54.8632 201.089 -52.1773C201.604 -51.0297 201.959 -49.7721 202.474 -48.6244C203.001 -47.3913 202.849 -45.9748 203.438 -44.9249C204.04 -43.7894 204.209 -42.5928 204.292 -41.384C204.434 -39.1373 204.403 -36.8661 204.273 -34.6681C204.229 -32.4824 203.557 -30.382 203.069 -28.2205C202.406 -25.4241 201.46 -22.7618 200.058 -20.2094C199.847 -19.8308 199.734 -19.3789 199.425 -19.0736C197.803 -17.449 196.205 -15.6536 194.386 -14.1755C191.403 -11.5737 189.395 -8.93559 187.484 -5.61368C187.211 -5.05191 186.642 -4.70983 186.184 -4.20906C186.552 -3.47652 186.97 -3.01265 187.055 -2.41435C187.14 -1.81605 187.558 -1.35217 187.729 -0.766121C187.987 -0.192296 188.084 0.491471 187.995 1.11425C187.907 1.73702 188.82 1.95653 188.472 2.61602C188.324 2.81144 188.742 3.27532 188.976 3.6782C189.209 4.08108 189.269 4.50843 189.577 4.8136C189.996 5.27748 188.994 5.68075 189.511 6.21786C189.819 6.52303 189.719 7.06034 189.952 7.46321C190.111 7.96381 190.431 8.35445 190.59 8.85503C190.86 9.51434 190.512 10.1738 190.51 10.7843C190.485 11.2239 191.335 11.6266 191.581 12.115C191.85 12.7743 191.873 13.5558 192.315 14.1906C192.672 14.8376 193.088 15.9121 191.753 16.4497C191.667 16.462 191.85 17.1335 191.911 17.5609C192.319 17.3287 192.554 17.1211 192.876 16.9012C193.33 17.6215 194.366 18.0852 193.622 19.0623C194.189 19.3307 193.621 19.6728 193.743 19.917C193.914 20.503 195.421 20.5514 194.516 21.6384C194.86 22.2 195.303 22.8348 195.572 23.4941C195.695 23.7383 195.237 24.2391 195.36 24.4833C195.495 24.8129 196.235 25.0569 195.776 25.5577C195.318 26.0585 196.12 26.1193 195.984 26.4002C195.835 26.5956 195.501 26.73 195.254 26.8522C195.991 28.3172 195.991 28.3172 197.434 28.5488C197.322 29.0006 197.21 29.4524 196.999 29.831C196.775 30.1242 196.466 30.4295 196.231 30.6372C196.699 30.8324 197.168 31.0277 197.637 31.2229C197.232 34.5932 197.354 34.8373 199.685 35.728C199.758 36.2408 199.83 36.7536 199.903 37.2665C199.656 37.3886 199.421 37.5963 199.099 37.8162C200.346 37.9013 200.346 37.9013 201.12 39.0122C201.366 39.5006 199.763 38.7684 200.612 39.7817C201.042 40.331 201.127 40.9293 200.791 41.6743C200.667 42.0406 200.74 42.5534 200.961 42.8709C201.329 43.6034 201.474 44.629 202.747 44.2745C203.006 44.2378 203.401 44.5308 203.065 45.2757C202.717 45.9352 202.937 46.8631 202.897 47.8278C203.305 47.5957 203.639 47.4612 204.133 47.2169C203.796 48.5724 203.694 49.7202 204.877 50.599C205.271 50.892 204.553 51.4295 205.082 52.052C205.821 52.9066 206.002 54.1886 206.529 55.4217C206.789 55.385 207.233 55.4093 207.591 55.4458C207.69 55.519 207.702 55.6046 207.714 55.69C207.712 56.3006 208.36 58.3884 208.63 59.0477C209.133 60.1099 209.636 61.172 210.053 62.2464C212.174 67.2644 214.963 72.0135 217.257 77.0069C218.901 80.5231 220.459 84.0515 221.942 87.6777C223.168 90.7299 224.394 93.7823 225.867 96.7124C226.628 98.3484 227.153 100.192 227.753 101.938C227.924 102.524 228.256 103 228.427 103.586C228.733 104.502 229.039 105.418 229.345 106.333C229.651 107.249 229.796 108.275 230.263 109.08C231.245 111.034 231.461 113.183 232.443 115.136C233.033 116.186 232.881 117.603 233.494 118.824C233.985 119.8 233.907 121.119 234.559 121.986C235.31 122.926 235.121 124.086 235.785 125.038C236.449 125.99 236.222 127.505 236.836 128.725C237.082 129.214 236.758 130.044 236.571 130.594C236.248 131.424 236.184 132.218 236.972 132.804C237.367 133.097 239.59 136.967 239.441 137.162C238.698 138.139 239.585 138.798 240.076 139.775C239.545 139.763 239.187 139.727 238.915 139.678C238.644 139.629 238.372 139.58 238.015 139.544C238.518 140.606 239.296 140.496 240.062 140.3C239.863 140.764 239.565 141.155 239.664 141.228C240.082 141.692 239.97 142.144 239.882 142.767C239.856 143.206 240.274 143.67 240.52 144.159C240.642 144.403 240.691 144.745 240.653 145.099C240.627 145.538 239.811 146.003 240.673 146.491C241.438 146.906 240.374 147.492 240.768 147.785C241.84 148.505 240.813 149.348 240.91 150.032C240.908 150.642 240.943 151.509 240.016 151.815C239.929 151.827 239.841 152.45 240.038 152.596C240.26 152.914 240.728 153.109 240.431 153.5C239.625 154.66 239.67 156.223 238.777 157.396C238.554 157.689 238.343 158.067 238.392 158.409C238.575 159.081 238.093 159.411 237.709 159.814C237.25 160.314 236.804 160.901 236.445 161.475C236.097 162.134 235.54 162.562 235.587 163.514C235.597 164.21 234.62 164.784 234.395 165.688C233.795 168.301 232.726 170.719 231.559 173.064C230.466 175.311 229.397 177.729 227.934 179.854C227.066 181.198 226.198 182.541 225.243 183.897C223.681 185.949 221.615 187.549 219.856 189.454C217.503 192.142 214.485 193.876 211.578 195.77C209.005 197.529 206.175 198.714 203.257 199.912C201.502 200.596 199.502 200.792 197.905 201.977C197.819 201.989 197.733 202.002 197.646 202.014C195.696 201.941 194.087 203.041 192.272 203.298C190.444 203.469 188.641 203.812 186.825 204.069C186.133 204.167 185.307 203.935 184.603 203.947C183.899 203.96 183.306 204.131 182.554 203.801C181.999 203.618 181.233 203.814 180.591 203.643C180.221 203.521 179.504 204.059 179.009 204.303C178.416 204.474 177.811 204.56 177.603 203.717C176.282 203.73 175.186 202.839 174.038 202.827C171.742 202.803 170.03 201.302 167.882 201.083C167.132 200.143 165.698 200.607 164.775 199.692C164.061 199.008 162.889 198.825 161.939 198.35C160.891 197.8 160.004 197.141 158.957 196.592C158.76 196.446 158.476 196.311 158.389 196.324C157.055 196.861 156.379 195.824 155.504 195.25C154.124 194.225 152.658 193.212 151.364 192.174C149.073 190.319 146.857 188.366 144.863 186.12C143.596 184.643 141.772 183.593 140.665 182.006C139.361 180.273 137.822 178.747 136.444 177.111C134.735 174.999 133.111 172.875 131.475 170.665C129.741 168.382 128.168 165.989 126.446 163.792C125.376 162.461 124.144 161.241 123.321 159.788C122.154 157.773 120.604 156.162 119.201 154.355C117.566 152.146 115.51 150.083 113.627 147.995C111.965 146.225 109.932 144.944 108.047 143.467C107.259 142.881 106.483 142.381 105.831 141.514C105.277 140.72 104.328 140.244 103.317 139.952C101.38 139.354 99.357 138.768 97.3823 138.525C96.5679 138.379 95.7275 138.672 94.8387 138.623C94.2214 138.624 93.2686 139.369 92.9142 138.111C92.9021 138.026 92.3712 138.014 92.0254 138.063C90.3827 138.295 88.74 138.528 87.0972 138.76C86.0597 138.907 85.2297 139.896 84.0573 139.713C83.2393 140.788 81.7592 140.3 80.72 141.058C79.8415 141.705 78.4339 141.73 77.2598 142.158C75.8384 142.708 74.4775 143.685 73.0198 143.978C71.2162 144.321 69.966 145.457 68.2731 145.958C66.7531 146.435 65.515 147.656 63.995 148.133C61.9684 148.768 60.1631 149.721 58.2471 150.516C58.0863 150.626 57.6921 150.333 57.4085 150.198C57.3583 150.467 57.3082 150.736 57.2701 151.09C55.8124 151.383 54.4653 151.836 53.0681 152.556C52.5736 152.801 51.8577 152.728 51.2646 152.899C50.6715 153.07 50.189 153.4 49.5959 153.571C48.9163 153.754 48.3111 153.84 47.6678 154.28C47.1975 154.695 46.4315 154.891 45.8383 155.062C45.1467 155.16 44.5657 155.416 44.0088 155.844C43.5385 156.259 42.7518 155.063 42.2918 156.174C41.9562 156.919 41.0934 156.431 40.6231 156.846C39.6823 157.677 38.3492 157.604 37.2857 158.19C36.6303 158.545 35.7899 158.838 35.0239 159.034C34.27 159.315 33.357 159.095 32.75 159.791C32.2088 159.083 32.0704 159.975 31.7246 160.024C31.3788 160.073 31.0692 160.378 30.7234 160.427C30.3032 160.574 29.8588 160.549 29.4265 160.611C29.2536 160.635 28.97 160.501 28.8956 160.599C28.114 161.93 26.3866 161.564 25.2608 162.334C24.7784 162.663 24.0002 162.774 23.4192 163.03C22.5909 163.409 21.7125 164.056 20.6508 164.032C20.2064 164.008 19.6375 164.35 19.2415 164.668C18.6224 165.278 17.8321 165.303 17.1405 165.401C16.0044 165.475 16.1272 165.719 14.8666 166.159C13.7789 166.574 12.8382 167.405 11.6278 167.576C10.5903 167.723 9.73419 169.152 8.44087 168.114C8.44087 168.114 8.05698 168.518 7.90827 168.713C7.37563 169.311 6.67185 169.324 6.00437 169.593C5.17607 169.971 4.48443 170.069 3.72018 169.654C3.67001 169.923 3.70628 170.18 3.64403 170.363C3.56966 170.46 3.58174 170.546 3.4953 170.558C2.13616 170.925 0.863478 171.279 -0.495665 171.646C-1.68189 171.988 -2.97702 171.561 -4.06646 172.587C-4.376 172.893 -5.12637 171.953 -5.6227 172.808C-5.77143 173.003 -6.51149 172.759 -7.04234 172.747C-7.09251 173.016 -7.14267 173.284 -7.19282 173.553C-8.58826 173.663 -9.83143 172.357 -11.1561 173.591C-11.5122 172.944 -11.5087 171.723 -12.9664 172.016C-12.733 172.419 -12.5238 172.651 -12.3025 172.969C-12.3647 173.152 -12.427 173.335 -12.5134 173.347C-13.0322 173.421 -13.563 173.409 -14.0939 173.396C-14.2668 173.421 -14.5383 173.372 -14.6248 173.384C-14.8877 174.642 -16.1066 173.507 -16.7759 174.386C-17.3708 175.168 -18.5293 174.46 -19.3558 174.228C-20.1702 174.082 -20.874 174.095 -21.5777 174.107C-22.6274 174.168 -23.8378 174.34 -24.6764 174.022C-25.6136 173.632 -26.5041 174.194 -27.3427 173.877C-28.1814 173.56 -29.0321 173.157 -29.9589 173.462C-31.4131 172.535 -33.1301 172.865 -34.6345 172.206C-34.918 172.072 -35.065 171.657 -35.2863 171.339C-36.0644 171.45 -36.8426 171.56 -37.6207 171.67C-38.0512 171.12 -38.3451 170.29 -39.2961 170.425C-40.0586 169.399 -40.5446 170.95 -41.2968 170.621C-41.321 170.45 -41.5423 170.132 -41.3815 170.023C-41.1584 169.729 -40.9232 169.522 -41.416 169.156C-41.7981 168.948 -41.8604 169.131 -42.1077 169.253C-42.8495 169.62 -43.9717 169.169 -43.9094 168.985C-43.1658 168.008 -44.3019 168.082 -44.5353 167.679C-44.6459 167.52 -45.016 167.398 -45.1024 167.411C-46.5238 167.96 -47.039 166.813 -47.6667 166.117C-49.4752 163.932 -49.4008 163.834 -49.7655 161.881C-50.1978 161.942 -50.6422 161.917 -51.1489 162.076C-51.8284 162.26 -52.3091 161.979 -52.629 161.588C-53.6992 160.258 -54.7574 159.013 -55.7532 157.584C-56.6506 156.229 -57.6344 154.886 -58.0251 153.372C-58.6111 151.101 -59.951 149.111 -60.1047 146.779C-60.2464 144.532 -60.6595 142.237 -61.0605 140.027C-61.3992 137.634 -61.022 135.314 -60.83 132.932C-60.7019 131.345 -60.4009 129.733 -59.9148 128.182C-59.6156 127.181 -59.5014 126.118 -59.8316 125.032C-60.2967 123.615 -59.8729 122.248 -59.4492 120.88C-58.3889 117.155 -56.7754 114.224 -55.0373 110.927C-54.1311 109.229 -53.3978 107.556 -52.1095 106.066C-50.0775 103.599 -47.788 101.706 -44.3624 99.7386C-42.5692 98.7002 -40.9852 97.4298 -39.4133 96.0739C-36.4303 93.4721 -33.4249 91.6518 -29.5531 89.0986C-26.3246 86.9851 -22.7884 85.1768 -19.4371 83.3076C-17.6439 82.2691 -15.9371 81.2429 -14.0454 80.2776C-12.2279 79.4101 -10.4226 78.4571 -8.76427 77.089C-7.82355 76.2584 -6.5007 75.6352 -5.55997 74.8046C-3.66643 73.2288 -1.63804 71.9827 0.378255 70.6512C2.80265 69.0874 5.20286 67.3528 7.72582 65.8623C10.0136 64.5794 11.7844 62.7595 14.0722 61.4767C16.2735 60.2061 18.3399 58.6058 20.4306 57.1765C22.4348 55.7595 24.0448 54.0495 24.6692 51.6071C24.946 49.8243 25.6412 48.5053 26.7185 47.3938ZM33.6911 39.9553C33.7896 40.0286 33.9867 40.175 34.0853 40.2483C34.1596 40.1506 34.3948 39.9429 34.3827 39.8574C34.1632 38.9295 34.018 37.9038 34.3155 37.513C35.443 36.1328 34.7065 34.6678 34.2535 33.337C33.8248 32.1771 32.8773 31.0906 32.2013 30.0529C31.98 29.7355 31.6601 29.3449 31.6117 29.003C31.5875 28.832 32.0821 28.5877 31.6014 28.307C31.3178 28.1727 30.9478 28.0508 30.1956 27.7213C30.9944 29.0032 29.4848 30.1759 30.8524 31.1157C30.8524 31.1157 30.6657 31.6652 30.5048 31.7751C29.9117 31.9463 29.9843 32.4591 30.1935 32.6911C31.0546 33.7898 30.8902 35.1208 31.2446 36.3784C31.7754 36.3904 32.2198 36.4147 32.3063 36.4025C32.0088 36.7933 31.7114 37.1841 31.4139 37.575C31.4018 37.4895 31.2791 37.2453 31.2912 37.3308C30.9937 37.7216 30.6963 38.1124 30.3989 38.5033C31.2012 38.5641 32.4013 37.6968 33.0392 39.0886C32.5308 39.858 32.5532 40.6395 33.1186 41.5185C33.1325 40.9934 33.4178 40.5171 33.6911 39.9553ZM189.076 -47.9487C189.524 -49.1455 189.836 -50.0614 190.147 -50.9773C189.95 -51.1237 189.753 -51.2702 189.543 -51.5021C189.395 -51.3067 189.246 -51.1113 189.172 -51.0136C188.162 -51.9169 187.239 -52.8324 186.229 -53.7357C186.154 -53.638 185.931 -53.3448 185.845 -53.3326C185.191 -53.5888 184.612 -53.9428 184.045 -54.2112C182.639 -54.7969 181.296 -55.5658 179.762 -54.564C180.599 -53.6362 182.055 -53.3192 182.174 -51.854C182.582 -52.0861 182.966 -52.4892 183.163 -52.3427C184.014 -51.94 185.037 -51.5618 185.665 -50.866C186.292 -50.1702 187.081 -49.5843 187.797 -49.5113C188.772 -49.4749 188.609 -48.7544 189.076 -47.9487ZM-41.0332 160.645C-40.0839 161.121 -39.3076 161.621 -38.481 161.853C-35.6937 162.853 -33.2298 164.684 -30.081 164.5C-29.9945 164.488 -29.8718 164.732 -29.6868 164.793C-28.639 165.342 -27.6274 165.635 -26.4291 165.378C-25.2308 165.121 -24.0584 165.304 -22.8619 165.658C-22.3068 165.841 -21.8624 165.865 -21.4405 165.108C-21.9211 164.827 -22.3153 164.534 -22.7718 164.424C-23.4998 164.266 -24.2779 164.376 -25.0059 164.217C-26.9927 163.888 -29.1161 163.84 -31.0025 162.974C-31.2861 162.84 -31.6561 162.718 -31.817 162.827C-32.9911 163.255 -34.2118 162.731 -35.0747 162.242C-36.8124 161.181 -38.9237 161.218 -40.364 159.765C-40.575 160.144 -40.7237 160.339 -41.0332 160.645ZM13.8941 152.434C13.2405 152.178 12.4883 151.849 12.414 151.946C11.8191 152.728 10.9925 152.496 10.2144 152.606C9.44839 152.802 8.59593 153.01 7.88005 152.937C7.06564 152.79 6.70413 153.975 5.90359 153.304C5.40725 154.159 4.56864 153.841 3.80261 154.037C3.03657 154.233 2.24636 154.257 1.46824 154.367C-1.55783 154.796 -4.49742 155.212 -7.52347 155.64C-7.78285 155.677 -8.11659 155.811 -8.36387 155.933C-7.12925 155.933 -5.85836 156.189 -4.7223 156.115C-1.93141 155.895 0.811066 155.332 3.65034 155.453C4.81059 155.551 6.0349 154.854 7.14676 154.61C9.45695 154.108 11.5458 153.29 13.8941 152.434ZM210.67 155.707C210.471 156.171 210.26 156.55 210.061 157.014C209.85 157.392 209.738 157.844 209.527 158.223C208.318 157.784 208.318 157.783 207.908 158.626C207.685 158.919 207.486 159.383 207.239 159.506C206.139 159.836 206.841 160.434 206.89 160.776C207.742 160.568 208.508 160.372 209.286 160.262C210.123 161.19 210.583 160.078 211.275 159.981C211.707 159.919 212.005 159.529 212.314 159.223C212.389 159.125 211.97 158.662 211.662 158.356C212.231 158.014 212.64 157.782 213.283 157.342C213.12 158.063 212.996 158.429 212.871 158.796C213.969 159.076 213.38 158.026 213.788 157.794C214.294 157.635 214.825 157.647 215.517 157.549C215.347 156.353 215.202 155.327 215.069 154.387C215.477 154.155 215.638 154.045 216.133 153.8C214.305 153.972 214.305 153.972 213.722 154.839C213.994 154.888 214.265 154.937 214.623 154.973C214.251 155.462 213.954 155.852 213.743 156.231C214.063 156.622 214.185 156.866 214.505 157.257C213.011 157.294 212.607 156.305 211.991 155.694C211.535 155.585 211.016 155.658 210.67 155.707ZM154.628 182.209C154.676 182.551 154.614 182.734 154.626 182.82C155.932 183.943 157.261 185.237 158.641 186.262C161.511 188.471 164.828 190.094 168.12 191.546C169.624 192.205 171.153 193.035 172.93 193.132C173.733 193.193 173.475 192.619 173.809 192.485C170.466 191.301 166.987 190.399 163.98 188.47C160.789 186.481 157.745 184.296 154.628 182.209ZM183.695 -65.4083C182.612 -66.8244 180.971 -67.2024 179.405 -67.6782C177.925 -68.1662 176.407 -68.3 174.939 -68.7025C173.285 -69.166 171.681 -69.2876 170.112 -69.1528C168.458 -69.0058 166.756 -69.8111 165.136 -68.7972C165.605 -68.6019 165.987 -68.3945 166.443 -68.2847C166.715 -68.236 167.048 -68.3704 167.406 -68.3339C168.48 -68.2243 169.64 -68.127 170.714 -68.0174C171.874 -67.9201 173.083 -67.4809 174.269 -67.8231C177.032 -66.9936 179.946 -66.9701 182.51 -65.6766C182.88 -65.5546 183.325 -65.5303 183.695 -65.4083ZM169.405 165.732C169.467 165.549 169.541 165.452 169.604 165.268C169.123 164.988 168.568 164.805 168.174 164.512C167.767 164.133 167.659 163.364 167.264 163.071C166.377 162.412 165.898 161.521 165.259 160.74C163.74 160.606 163.213 159.373 162.302 158.543C161.588 157.859 160.874 157.175 160.172 156.577C159.975 156.431 159.53 156.407 159.259 156.358C159.714 157.078 160.466 157.408 160.339 158.384C160.263 159.093 160.856 158.922 161.238 159.129C161.522 159.263 161.569 160.216 161.754 160.277C162.729 160.313 162.912 160.985 163.429 161.522C163.958 162.144 164.499 162.852 165.165 163.194C165.843 163.621 165.94 164.305 166.197 164.879C166.519 164.659 166.939 164.512 167.422 164.182C167.543 165.037 167.615 165.55 167.7 166.148C168.367 165.879 168.886 165.806 169.405 165.732Z" fill="#686FB0"/>
<defs>
<clipPath id="clip0">
<rect x="27.4296" y="-249" width="451.746" height="298.374" transform="rotate(81.9438 27.4296 -249)" fill="white"/>
</clipPath>
</defs>
</svg>
