<svg width="266" height="127" viewBox="0 0 266 127" fill="none" xmlns="http://www.w3.org/2000/svg">
<g clip-path="url(#clip0)">
<path d="M75.3178 114.184C74.5582 113.684 73.3643 114.385 73.3643 113.083C73.3643 112.983 72.2791 112.983 71.845 112.683C70.4341 111.882 69.0233 111.081 67.3954 110.58C66.8527 110.38 66.4186 109.979 66.093 109.579C64.4651 107.777 62.7287 106.075 60.4496 104.973C60.124 104.773 60.7752 103.472 59.5814 104.373C59.4729 104.473 58.8217 104.072 58.4961 104.072C57.4109 103.972 56.5426 103.572 55.783 102.771C55.4574 102.37 55.2403 101.87 55.0233 101.469C54.5892 100.368 54.3721 99.1664 53.8295 98.065C52.2016 94.8611 51.1163 91.457 49.7054 88.153C49.1628 86.9516 48.8372 85.7501 48.4031 84.5487C47.969 83.3472 47.3178 82.2459 46.9923 81.0444C46.5581 79.2422 45.6899 77.5402 44.9302 75.8381C44.1705 74.2362 43.7364 72.434 43.0853 70.8321C41.8915 67.428 40.8062 63.9238 39.2868 60.5197C38.4186 58.7175 38.5271 56.8152 38.093 54.9129C38.093 54.8127 38.2016 54.6125 38.2016 54.5124C36.5736 54.6125 37.1163 53.2108 36.8992 52.61C35.7054 50.107 34.9457 47.5039 33.8605 45.0009C33.5349 44.3 33.5349 44.1999 34.1861 43.0986C33.7519 42.8983 33.1008 42.6981 33.1008 42.4978C32.8837 40.1951 31.0388 38.1926 31.2558 35.7897C31.2558 35.4894 30.9302 35.189 30.7132 34.8886C30.4961 34.4882 30.062 34.0877 30.1705 33.7873C30.3876 31.2843 28.6512 29.2819 28 26.9791C27.6744 25.5774 27.5659 24.1757 26.5892 22.8741C26.2636 22.4736 26.5892 21.5725 26.6977 20.4712C25.3954 19.5701 24.6357 17.8681 24.7442 15.8657C24.7442 15.6654 24.8527 15.4652 24.7442 15.3651C22.6822 12.5617 23.1163 8.95731 21.2713 6.0538C21.1628 5.85356 21.4884 5.35295 21.7054 4.85236C20.1861 3.85114 19.7519 2.34932 19.4264 0.647263C18.9923 -1.25504 18.3411 -3.05721 17.5814 -4.9595C16.7132 -7.46254 15.845 -9.96556 15.3023 -12.5687C15.0853 -13.3697 14.7597 -14.1706 14.5426 -14.9716C14.3256 -15.6725 14.5426 -16.4734 14 -17.0742C13.0233 -18.0754 14.2171 -19.5772 12.9147 -20.4783C13.1318 -21.9801 11.8295 -23.1815 11.7209 -24.6833C11.6124 -26.1852 10.7442 -27.4867 10.6357 -28.8884C10.4186 -31.1912 9.55039 -33.2937 9.11628 -35.4964C8.7907 -37.4988 8.68217 -39.6014 7.5969 -41.4036C7.37985 -44.9078 5.64341 -48.0115 5.10078 -51.4156C4.88372 -53.0176 4.23256 -54.5194 3.79845 -56.1213C3.5814 -56.9223 3.36434 -57.8234 3.36434 -58.6244C3.36434 -58.9247 3.47287 -59.2251 3.36434 -59.4253C2.06202 -60.7269 2.17055 -62.3288 2.17055 -63.9308C1.1938 -64.5315 1.73644 -65.4326 1.62791 -66.1334C1.51938 -66.8343 1.08527 -67.6353 1.08527 -68.3361C1.08527 -72.5412 0.325584 -76.7463 0.434111 -80.9513C0.542638 -84.4556 -0.542633 -88.0599 2.74181e-06 -91.6643C0.542638 -95.6691 0.434111 -99.7741 2.27907 -103.579C3.25582 -105.381 4.12403 -107.183 5.42636 -108.785C6.62016 -110.287 8.03101 -111.688 9.44186 -112.99C10.9612 -114.392 12.9147 -115.293 15.0853 -115.593C15.9535 -115.693 16.8217 -115.994 17.6899 -116.294C19.1008 -116.795 20.5116 -116.995 22.031 -117.295C23.9845 -117.696 25.8295 -117.696 27.6744 -117.796C29.9535 -117.896 31.907 -116.895 33.969 -116.594C34.1861 -116.594 34.4031 -115.894 34.5116 -115.793C35.0543 -115.793 35.7054 -115.994 36.031 -115.894C36.8992 -115.493 37.7674 -114.992 38.6357 -114.492C39.3954 -114.091 40.155 -113.691 40.6977 -113.19C41.3488 -112.59 41.7829 -111.789 42.4341 -111.288C43.0853 -110.787 44.062 -110.687 44.4961 -110.187C45.3643 -109.286 45.5814 -107.984 46.6667 -107.183C47.1008 -106.883 47.1008 -106.182 47.5349 -105.881C48.6202 -104.98 49.0543 -103.679 49.9225 -102.678C50.6822 -101.777 50.3566 -100.475 51.6589 -99.674C52.6357 -99.0732 53.0698 -97.7717 53.8295 -96.7705C54.5891 -95.7692 55.6744 -94.9683 56.3256 -93.867C57.845 -91.3639 60.3411 -89.3615 61.6434 -86.5581C61.7519 -86.2578 61.969 -85.7571 62.2946 -85.7571C64.2481 -85.3567 64.4651 -83.4544 65.7674 -82.4532C65.6589 -81.5521 66.2016 -81.6522 66.8527 -81.6522C67.0698 -81.6522 67.3954 -81.452 67.5039 -81.3518C68.2636 -79.85 69.6744 -79.049 71.0853 -78.0478C72.062 -77.347 72.7132 -76.1455 73.6899 -75.2444C74.4496 -74.5436 75.1008 -73.7426 75.969 -73.1419C76.8372 -72.6413 76.7287 -71.3397 78.031 -71.2396C77.7054 -69.7378 79.6589 -69.7378 79.9845 -68.7366C80.4186 -67.6352 81.8295 -67.6353 82.2636 -66.3337C82.5892 -65.4326 83.783 -64.7317 84.6512 -64.0309C85.5194 -63.2299 86.4961 -62.3288 87.3643 -61.5279C87.5814 -61.7281 87.7985 -61.8282 88.0155 -62.0285C88.0155 -61.628 89.3178 -61.7281 88.5582 -60.827C88.3411 -60.6268 88.5582 -59.8258 88.8837 -59.5255C89.969 -58.5242 90.7287 -57.1225 92.1395 -56.5218C93.2248 -56.0212 93.3333 -55.2202 93.876 -54.5194C94.8527 -53.2178 96.3721 -52.2166 97.6744 -51.1153C97.783 -51.0152 98.1085 -51.0152 98.2171 -51.0152C98.9768 -48.0115 102.45 -47.3107 104.078 -45.108C104.837 -44.0067 105.597 -42.9054 106.357 -41.804C107.008 -42.605 107.659 -42.5049 108.202 -41.9042C108.31 -42.1044 108.419 -42.2045 108.419 -42.4048C108.202 -43.5061 108.419 -44.9078 107.767 -45.7088C106.899 -46.8101 107.55 -48.1116 106.899 -49.213C106.248 -50.3143 106.357 -51.716 106.14 -53.0176C105.922 -54.219 105.922 -55.5206 105.488 -56.6219C104.403 -59.4253 104.403 -62.5291 103.209 -65.3325C102.667 -66.634 102.775 -68.236 102.558 -69.7378C102.45 -70.5388 102.341 -71.54 101.907 -72.2408C101.364 -73.0418 101.69 -73.9429 101.256 -74.4435C100.713 -75.1443 100.822 -75.7451 100.713 -76.4459C100.388 -78.2481 99.9535 -79.9501 99.4109 -81.6522C98.5426 -84.6558 97.4574 -87.5593 97.1318 -90.6631L96.155 -92.8657C95.0698 -93.9671 95.5039 -95.4689 94.9613 -96.7705C94.5271 -97.8718 93.5504 -99.0732 94.4186 -100.475C94.5271 -100.575 94.5271 -100.875 94.4186 -101.076C93.0078 -103.579 91.7054 -107.483 91.4884 -109.786C91.4884 -109.886 91.7054 -110.087 91.5969 -110.187C90.0775 -111.388 91.0543 -113.391 89.969 -114.792C90.1861 -117.596 88.5582 -120.199 88.7752 -123.102C88.7752 -123.403 88.5582 -123.703 88.4496 -124.103C87.907 -125.505 87.3643 -126.907 87.5814 -128.409C87.6899 -129.21 87.4729 -129.91 87.0388 -130.611C86.7132 -131.312 87.1473 -132.113 86.6047 -132.914C85.845 -134.015 86.2791 -135.417 85.845 -136.719C85.0853 -139.322 84.8682 -142.025 84.4341 -144.728C84.1085 -147.031 83.5659 -149.234 82.9147 -151.537C82.4806 -152.938 82.5892 -154.44 82.155 -155.842C81.7209 -157.344 81.7209 -158.946 81.0698 -160.347C80.9613 -160.548 80.9613 -160.848 80.9613 -161.148C80.9613 -162.35 80.8527 -163.551 80.4186 -164.753C79.9845 -165.854 80.6357 -167.256 79.7674 -168.357C79.7674 -170.86 79.7674 -173.463 79.7674 -175.966C79.7674 -177.868 79.9845 -179.671 80.7442 -181.573C81.3954 -183.275 81.6124 -185.177 82.155 -187.08C82.9147 -189.783 83.6744 -192.486 84.8682 -195.089C85.4109 -196.09 85.4109 -197.292 85.9535 -198.193C87.2558 -200.796 89.2093 -202.999 92.4651 -203.8C93.876 -203.7 94.9613 -204 96.2636 -204C98 -203.9 99.845 -203.9 101.581 -204C103.86 -204.1 106.14 -203.499 108.093 -202.799C113.085 -200.796 117.86 -198.293 120.899 -193.888C122.419 -193.688 122.202 -192.186 122.961 -191.385C123.721 -190.584 124.264 -189.683 125.023 -188.882C125.566 -188.181 125.349 -187.58 125.023 -186.879C126 -186.579 126.543 -185.878 127.194 -185.077C128.171 -183.876 127.845 -182.274 128.93 -181.072C129.798 -180.071 130.016 -178.369 130.884 -177.268C130.016 -176.066 132.295 -175.566 131.643 -174.464C132.837 -173.663 131.535 -172.162 132.512 -171.561C133.488 -170.96 134.031 -170.059 134.574 -169.358C135.55 -168.057 135.55 -166.254 136.961 -165.153C136.527 -164.853 136.31 -164.552 136.853 -164.152C136.961 -164.052 136.31 -163.451 136.961 -163.051C138.155 -162.25 138.915 -161.148 139.24 -159.847C139.566 -158.645 140.434 -157.644 140.651 -156.242C140.76 -155.441 140.76 -154.24 141.411 -153.639C142.171 -152.938 142.171 -152.037 142.605 -151.336C143.147 -150.535 143.69 -149.734 143.581 -148.633C143.581 -148.333 143.907 -147.932 144.124 -147.732C144.667 -147.332 144.775 -146.931 144.775 -146.33C144.775 -145.629 144.45 -144.628 145.752 -144.528C145.86 -144.528 145.86 -143.727 145.969 -143.327C146.837 -141.424 147.814 -139.622 148.248 -137.62C148.248 -137.42 148.357 -137.219 148.465 -137.119C149.659 -136.118 149.767 -134.716 150.202 -133.415C150.419 -132.614 150.31 -131.512 151.504 -130.912C152.264 -130.511 151.504 -130.011 151.178 -129.61C152.915 -128.909 151.721 -126.807 153.24 -126.006C153.457 -125.906 153.457 -125.405 153.457 -125.005C153.566 -124.704 153.457 -124.103 153.674 -124.003C154.434 -123.503 154.326 -122.902 154.434 -122.201C154.543 -121.6 155.736 -121 155.628 -120.699C155.302 -119.898 156.062 -119.498 156.171 -118.997C156.279 -118.296 156.388 -117.596 156.496 -116.895C156.496 -116.695 156.496 -116.494 156.605 -116.394C158.124 -114.892 157.907 -112.59 159.752 -111.288C158.992 -110.787 158.341 -110.487 157.69 -110.087C157.798 -109.886 157.907 -109.786 158.016 -109.686C158.667 -109.386 159.426 -109.185 159.969 -108.885C160.295 -108.685 160.62 -108.184 160.512 -108.084C159.535 -106.783 160.729 -106.582 161.705 -106.282C161.705 -105.481 161.705 -104.68 161.705 -103.879C162.791 -103.779 163.333 -103.078 162.791 -102.477C162.031 -101.476 162.682 -100.775 163.333 -100.575C164.419 -100.175 164.636 -99.674 164.636 -98.7729C164.636 -98.4725 164.744 -97.9719 164.961 -97.8718C166.264 -97.0708 166.264 -95.8694 166.698 -94.6679C167.023 -93.9671 166.698 -93.066 167.674 -92.5654C168.326 -92.1649 168.651 -91.3639 169.194 -90.7632C169.736 -90.0624 170.279 -89.3615 170.93 -88.6607C171.473 -88.0599 171.147 -87.7596 170.822 -87.259C170.713 -87.0587 171.147 -86.5581 171.256 -86.1576C171.364 -85.5569 171.256 -84.9562 171.256 -84.2553C171.907 -84.4556 172.341 -84.6558 172.992 -84.8561C172.775 -84.0551 172.016 -83.5545 172.884 -82.9538C173.318 -82.7535 173.969 -82.353 173.101 -81.8524C173.318 -81.7523 173.535 -81.4519 173.752 -81.5521C174.62 -81.8524 175.054 -82.6534 174.837 -83.4544C174.729 -83.6546 174.403 -83.8548 174.295 -84.0551C174.186 -84.1552 174.295 -84.3555 174.295 -84.6558C174.62 -84.7559 174.946 -84.8561 175.38 -85.0563C175.163 -85.3567 174.837 -85.7571 174.837 -85.8573C175.488 -86.5581 174.62 -87.5593 174.837 -87.8597C175.597 -88.6607 175.271 -89.5617 175.38 -90.4628C175.38 -91.464 175.597 -92.3651 175.922 -93.2662C176.248 -93.9671 176.14 -94.6679 176.031 -95.569C175.814 -96.8706 175.488 -98.3724 176.574 -99.674C175.814 -100.575 176.682 -101.576 176.682 -102.477C176.682 -103.779 176.14 -105.08 177.008 -106.382C177.659 -107.383 176.574 -108.885 177.767 -109.886C177.55 -111.488 178.31 -112.99 178.31 -114.592C178.31 -117.495 179.07 -120.299 179.721 -123.102C180.481 -126.306 181.457 -129.41 182.868 -132.514C184.713 -136.719 186.884 -140.724 189.705 -144.328C191.55 -146.631 192.636 -149.634 195.891 -150.936C196.109 -151.036 196.109 -151.437 196.217 -151.637C197.519 -153.339 199.256 -154.54 201.318 -155.241C201.969 -155.541 202.62 -155.642 203.271 -156.042C204.031 -156.543 204.791 -156.943 205.876 -156.943C206.744 -156.943 207.721 -157.244 208.589 -157.444C209.457 -157.644 210.543 -157.043 211.302 -157.944C211.411 -158.044 211.628 -157.944 211.845 -157.944C214.124 -158.145 216.403 -158.245 218.682 -158.545C219.55 -158.645 220.527 -159.046 221.395 -159.046C222.915 -159.046 224.434 -158.645 225.845 -158.545C227.364 -158.445 228.775 -158.645 230.295 -158.445C231.814 -158.245 233.442 -157.944 234.853 -157.344C236.372 -156.743 238.109 -156.743 239.411 -155.742C240.605 -154.841 242.341 -154.44 243.426 -153.539C244.512 -152.538 246.574 -152.237 246.465 -150.235C246.465 -150.035 246.791 -149.835 247.008 -149.734C249.178 -148.733 249.721 -146.731 250.589 -145.029C251.023 -144.028 251.24 -142.826 251.132 -141.725C251.132 -140.724 252.326 -141.324 252.326 -140.623C252.326 -140.123 252.326 -139.522 252.434 -139.022C252.977 -137.62 253.411 -136.218 253.519 -134.816C253.519 -134.616 253.519 -134.316 253.736 -134.116C254.93 -132.414 254.822 -130.311 255.364 -128.409C255.581 -127.608 256.124 -126.607 255.907 -125.906C255.473 -125.005 255.907 -124.304 256.016 -123.603C256.558 -121.4 256.341 -118.997 257.535 -116.795C257.86 -116.194 257.426 -115.093 257.86 -114.492C258.295 -113.791 257.86 -113.29 258.186 -112.59C258.62 -111.688 259.163 -110.587 258.946 -109.286C258.729 -108.284 259.705 -107.383 259.597 -106.282C259.488 -105.281 260.031 -104.28 260.14 -103.278C260.248 -102.277 259.814 -101.176 260.682 -100.175C260.791 -100.074 260.682 -99.7741 260.682 -99.674C260.899 -96.4701 260.791 -93.2662 261.333 -90.0623C262.419 -84.0551 261.55 -78.0478 261.876 -71.9405C261.876 -71.0394 261.876 -71.0394 262.961 -69.8379C263.07 -71.0394 263.07 -72.1407 263.178 -73.3421C263.612 -73.1419 264.264 -73.0418 264.264 -72.8415C264.372 -71.54 264.372 -70.3385 264.264 -69.0369C264.264 -68.6365 263.721 -68.236 263.504 -67.8355C262.636 -68.1358 263.938 -69.8379 262.093 -69.4374C262.636 -68.5363 262.527 -67.435 263.504 -66.5339C264.372 -65.8331 262.961 -64.6316 263.504 -63.6304C263.504 -63.6304 263.287 -63.5303 263.287 -63.4302C262.961 -62.3288 262.202 -61.4277 261.985 -60.4265C261.767 -59.5255 262.636 -58.4241 263.07 -57.3228C263.178 -57.1225 263.07 -56.8222 262.961 -56.4217C262.636 -56.6219 262.31 -56.7221 261.876 -56.9223C262.419 -54.6195 263.395 -52.4169 261.225 -50.4144C262.853 -48.8125 261.225 -47.2106 261.008 -45.5085C261.008 -45.108 260.031 -44.9078 259.38 -44.4072C260.031 -44.3071 260.574 -44.2069 261.116 -44.2069C260.574 -42.9054 260.465 -42.1044 260.574 -40.5025C260.574 -40.2021 260.465 -39.8016 260.357 -39.5013C259.922 -38.6002 259.923 -37.6991 259.923 -36.5977C259.923 -36.0971 259.705 -35.5965 259.597 -35.0959C259.488 -34.5953 259.488 -34.0947 259.271 -33.5941C258.946 -32.8933 260.357 -32.1924 259.271 -31.5917C258.295 -31.0911 259.054 -30.19 258.403 -29.6894C258.186 -29.5893 257.86 -29.5893 256.992 -29.389C257.86 -29.1888 258.295 -29.0887 258.837 -28.8884C258.512 -28.6882 258.729 -28.7883 258.946 -28.9885C259.814 -27.8872 258.512 -26.9861 258.62 -25.9849C258.837 -24.7835 257.643 -24.2829 257.209 -23.2816C257.752 -23.0814 258.078 -22.9813 258.62 -22.7811C258.512 -21.1791 258.946 -19.5772 257.752 -17.9752C257.101 -17.1743 257.426 -15.6725 258.186 -13.4698C257.643 -13.8703 257.426 -14.0705 257.209 -14.1706C256.992 -14.2708 256.667 -14.1706 256.233 -14.1706C256.884 -13.2695 257.426 -12.5687 257.969 -11.7677C257.318 -10.9668 256.667 -10.2659 257.426 -9.16458C257.535 -8.96434 257.318 -8.46375 257.101 -8.16338C256.667 -7.56265 256.667 -7.06206 257.101 -6.46132C257.209 -6.26108 257.426 -5.8606 257.318 -5.76048C255.69 -4.75928 257.969 -3.85818 257.318 -2.95709C256.884 -2.35637 256.558 -1.85576 256.341 -1.45528C256.775 -1.05479 257.101 -0.75444 257.318 -0.353958C257.969 0.447006 256.45 1.04774 257.209 1.94884C257.643 2.54956 257.426 3.75101 257.318 4.6521C256.884 7.75584 258.186 10.8596 257.969 13.9633C258.837 15.5653 258.403 17.2673 258.62 18.9694C258.729 19.9706 258.946 20.9718 259.163 21.973C259.38 22.8741 258.946 23.7752 259.597 24.8765C260.14 25.6775 259.597 27.0792 259.814 28.0804C260.031 28.7813 260.791 29.2819 259.705 29.8826C260.574 30.3832 260.248 31.1842 260.248 31.885C260.357 33.5871 260.791 35.2891 261.333 36.9912C261.55 37.692 261.659 38.493 261.442 39.0937C261.225 39.7946 262.636 40.2952 261.55 40.8959C261.985 41.8971 262.202 42.8983 262.093 43.8995C261.985 44.9007 262.31 45.8018 262.636 46.7029C263.287 48.5051 263.504 50.4074 263.829 52.3097C264.047 53.3109 263.938 54.3121 264.372 55.4135C264.806 56.5148 264.698 57.8164 263.829 58.9177C263.612 59.218 263.395 59.6185 263.504 60.2193C263.938 59.9189 264.372 59.5184 264.806 59.218C265.674 60.4195 264.481 60.9201 263.721 61.8212C264.264 62.4219 264.047 63.4231 265.24 63.6234C265.457 63.6234 265.566 64.5245 265.566 65.0251C265.674 66.2265 265.24 67.2278 263.612 67.5281C264.915 67.9286 265.457 68.4292 264.806 69.4304C264.698 69.5305 265.24 70.1313 265.783 70.3315C264.698 71.4328 265.674 73.235 263.938 74.3363C264.372 74.2362 264.806 74.1361 265.457 74.036C265.349 75.4377 265.566 77.0396 264.915 78.241C264.155 79.6427 265.023 81.2447 263.504 82.4461C262.961 82.4461 262.202 82.5462 261.442 82.6464C261.442 82.7465 261.442 82.8466 261.442 82.9467C261.985 83.0468 262.527 83.147 263.178 83.2471C263.178 84.4485 262.636 85.4498 262.093 86.5511C260.682 89.6548 258.729 92.3581 256.45 95.0614C255.364 96.4631 254.062 97.5644 252.868 98.866C251.674 100.067 250.698 101.369 249.504 102.47C246.465 105.374 243.318 108.177 239.194 109.879C237.349 111.882 234.744 112.583 232.357 113.684C228.558 115.486 224.434 116.788 220.419 118.089C218.248 118.79 216.078 119.491 213.907 120.092C211.736 120.692 209.349 120.792 207.287 121.794C206.961 121.994 206.527 121.894 206.093 121.894C204.465 121.794 202.946 121.994 201.426 122.795C201.101 122.995 200.667 122.895 200.341 122.995C199.256 123.195 198.171 122.695 196.977 123.496C196.217 123.996 194.915 123.296 194.047 124.096C193.938 124.197 193.612 124.096 193.504 124.096C189.38 123.896 185.364 124.998 181.349 124.697C180.047 124.597 178.744 124.497 177.442 125.098C176.791 125.398 175.488 125.498 174.729 124.697C174.078 125.498 173.209 125.198 172.341 125.198C169.953 125.198 167.566 125.098 165.287 125.198C164.093 125.198 162.791 124.697 161.705 125.698C161.163 126.199 160.62 124.497 159.752 125.398C158.124 125.198 156.605 125.798 155.085 125.698C152.698 125.598 150.202 125.198 148.031 125.798C145.752 126.399 143.581 126.099 141.411 126.199C139.023 126.299 136.636 126.199 134.357 126.299C133.597 126.299 132.729 126.599 131.969 126.8C131.209 127.1 130.558 125.798 129.798 126.8C128.93 126.499 128.171 125.999 127.302 126.8C126.543 125.899 125.891 126.9 125.132 126.8C124.372 126.7 123.721 126.9 122.961 126.399C122.202 125.999 121.116 126.199 120.14 126.199C116.667 126.399 113.302 125.799 110.047 124.998C106.899 124.197 103.643 123.596 100.496 122.495C100.062 122.394 99.5194 122.394 99.0853 122.394C95.6124 122.695 92.3566 121.393 88.8837 121.293C88.5582 121.293 88.2326 120.893 87.907 120.792C87.3643 120.592 86.7132 120.392 86.062 120.192C85.4109 119.991 84.8682 119.691 84.2171 119.591C83.6744 119.491 84.6512 118.289 83.3488 118.79C82.9147 118.99 82.155 118.69 81.6124 118.49C80.8527 118.189 80.2016 117.789 79.4419 117.388C77.9225 116.587 76.4031 115.686 74.9923 114.885C74.5581 114.785 74.7752 114.485 75.3178 114.184ZM34.6202 35.189C34.2946 33.4869 33.8605 32.4857 33.8605 31.5847C33.969 30.3832 33.6434 29.2819 33.1008 28.2807C32.3411 26.6787 31.907 25.0768 31.3643 23.4748C30.4961 20.8717 29.7364 18.2686 28.9767 15.6654C28.3256 13.3626 27.0233 11.16 27.2403 8.65694C26.2636 7.15512 27.0233 5.25284 25.5039 3.85114C24.9612 3.35054 25.1783 2.24919 24.8527 1.44823C24.6357 1.04774 26.2636 0.647263 24.8527 0.447021C23.5504 0.24678 25.0698 -0.25383 24.7442 -0.554199C23.3333 -1.5554 23.1163 -3.05721 22.8992 -4.45891C22.5736 -6.26108 21.5969 -7.76291 21.1628 -9.56508C20.8372 -10.9668 20.6202 -12.5687 19.7519 -13.8703C19.2093 -14.6712 19.1008 -15.7726 18.9923 -16.8739C18.6667 -19.6773 17.6899 -22.3806 16.9302 -25.0838C16.1705 -28.0875 15.6279 -31.0911 14.7597 -34.0947C15.3023 -34.8957 13.7829 -35.5965 14.7597 -36.3975C14.3256 -37.1985 13.8915 -37.8993 13.6744 -38.7003C13.3488 -39.5013 13.6744 -40.4023 13.2403 -41.3034C12.3721 -43.7063 11.8295 -46.2094 11.2868 -48.7124C10.8527 -50.4144 10.5271 -52.0164 10.093 -53.7184C9.55039 -55.5206 8.57365 -57.2227 8.35659 -59.0248C7.92248 -62.3288 7.05427 -65.5327 6.62016 -68.7366C6.18605 -71.7402 5.53489 -74.7438 5.86047 -77.7475C6.07752 -79.4495 5.969 -81.2517 5.86047 -82.9538C5.86047 -83.6546 5.75194 -84.2553 5.53489 -84.9562C5.10078 -86.1576 5.20931 -87.6594 5.42636 -88.961C5.86047 -91.1637 6.07752 -95.4689 5.53489 -97.8718C5.20931 -97.3712 4.66667 -96.7705 4.7752 -96.2699C5.10078 -94.0672 4.23256 -92.0648 4.12403 -89.9622C3.79845 -83.5545 4.88372 -77.2469 4.7752 -70.8391C4.7752 -70.4386 4.66667 -70.0381 4.88372 -69.7378C5.969 -67.2348 5.969 -64.5315 6.62016 -61.9284C6.72869 -61.4277 6.62016 -60.9271 7.16279 -60.5267C7.81396 -60.026 6.07752 -59.5255 7.05427 -59.0248C8.46512 -58.324 7.27132 -56.7221 8.35659 -55.9211C8.57365 -55.7209 8.13954 -54.8198 8.13954 -54.219C8.13954 -54.0188 8.13954 -53.8185 8.24806 -53.7184C9.00776 -52.8173 9.11628 -52.8173 8.46512 -51.8161C8.89923 -51.3155 9.9845 -50.915 9.00776 -50.0139C9.87597 -49.0127 9.22481 -47.3107 10.5271 -46.5097C10.7442 -46.4096 10.7442 -45.8089 10.7442 -45.8089C9.9845 -45.4084 10.5271 -45.0079 10.7442 -44.6074C10.9612 -44.0067 10.8527 -43.406 11.0698 -42.8053C11.938 -41.0031 12.6977 -39.1008 12.4806 -37.0984C12.3721 -36.2974 12.8062 -35.7968 13.1318 -35.0959C13.4574 -34.4952 13.8915 -33.8945 13.7829 -33.0935C13.5659 -32.2925 14.5426 -31.3914 13.7829 -30.5905C14.9767 -29.389 14.6512 -27.7871 15.1938 -26.4855C16.6047 -23.4819 16.1705 -20.0778 17.907 -17.1743C17.7985 -15.3721 18.6667 -13.8703 18.9923 -12.1682C19.2093 -10.5663 20.186 -9.1646 19.8605 -7.46254C19.7519 -6.76169 20.1861 -5.76048 20.6202 -5.05963C21.1628 -4.25867 20.5116 -3.35757 21.3798 -2.55661C22.031 -1.95589 21.5969 -0.353943 22.1395 0.0465393C23.3333 0.847504 21.5969 1.7486 22.5736 2.24919C23.0078 5.05258 25.2868 7.25525 25.7209 10.0586C27.0233 10.6594 26.5891 11.8608 27.0233 12.862C27.4574 13.8632 28.1085 14.8644 28 16.0659C28 16.4664 28.2171 16.967 28.2171 17.3675C28.2171 17.8681 28 18.3687 28.1085 18.8693C28.3256 19.6703 29.7364 20.1709 28.7597 21.2722C29.3023 22.0732 29.845 22.774 30.1705 23.575C30.4961 24.1757 30.4961 24.9767 30.9302 25.4773C31.7985 26.4785 31.0388 27.8802 31.6899 28.6811C32.5581 29.7825 31.4729 30.9839 32.4496 31.9851C33.5349 32.4857 33.3178 33.8874 34.6202 35.189ZM76.5116 -12.0681C76.5116 -11.167 76.2946 -10.5663 76.4031 -10.1658C77.0543 -8.56386 77.814 -7.06206 78.5737 -5.56024C78.7907 -5.15976 79.1163 -4.85939 79.3333 -4.45891C79.7674 -3.4577 79.6589 -2.15613 80.7442 -1.45528C81.7209 -0.754425 80.4186 1.04774 82.3721 1.14786C82.9147 3.55077 84.5426 5.65331 85.1938 7.95609C85.6279 9.4579 86.8217 10.4591 87.0388 11.8608C87.3643 14.2637 89.6434 16.0659 89.4264 18.5689C89.4264 18.669 89.752 18.7691 89.8605 18.9694C90.5116 20.0707 91.4884 21.1721 91.7054 22.3735C91.9225 23.7752 93.3333 24.7764 93.1163 26.2782C93.1163 26.2782 93.3333 26.3784 93.5504 26.4785C93.876 25.8777 94.093 25.277 94.4186 24.5762C93.9845 24.3759 93.5504 24.2758 93.2248 24.1757C93.1163 23.3747 93.2248 22.5738 93.0078 21.7728C92.7907 20.9718 91.9225 20.0707 92.2481 19.5701C92.6822 18.669 91.5969 18.2686 91.814 17.4676C91.9225 16.967 91.2713 15.9658 90.7287 15.5653C89.7519 14.8644 90.9457 13.663 90.2946 13.5629C88.6667 13.1624 89.969 12.1612 89.5349 11.5605C89.1008 10.9597 88.6667 10.2589 88.3411 9.55803C87.907 8.75706 87.5814 8.05621 87.2558 7.25525C86.9302 6.5544 86.4961 5.85355 86.2791 5.15269C85.9535 4.35173 85.7364 3.55077 85.4109 2.7498C85.0853 2.04895 84.6512 1.44823 84.2171 0.747375C83.783 0.0465393 83.4574 -0.554184 83.0233 -1.25504C82.5892 -1.95589 82.1551 -2.75685 81.8295 -3.55782C81.5039 -4.25867 81.2868 -5.05963 80.9613 -5.66035C80.5271 -6.36121 79.9845 -6.86182 79.5504 -7.56267C79.1163 -8.2635 78.6822 -9.06447 78.2481 -9.76532C77.814 -10.4662 77.2713 -11.167 76.5116 -12.0681ZM236.264 99.9673C238.76 97.7646 240.93 95.7622 242.341 93.2592C244.403 89.7549 245.597 86.0505 245.705 82.0457C245.705 81.4449 246.248 80.644 246.031 80.2435C245.597 79.3424 245.597 78.8418 246.248 78.1409C246.357 78.0408 246.357 77.7404 246.248 77.6403C245.38 77.0396 245.705 76.1385 245.705 75.4377C245.922 73.3351 244.946 71.3327 244.837 69.2301C244.512 69.931 244.186 70.732 244.186 71.4328C244.186 72.1337 243.86 72.7344 243.86 73.3351C243.86 74.1361 243.86 74.937 243.86 75.738C243.86 76.4388 243.86 77.2398 243.643 77.8405C243.318 78.4413 243.643 79.042 243.426 79.7429C242.884 80.9443 243.752 82.2459 242.884 83.6476C242.233 84.7489 243.318 86.5511 241.581 87.4522C242.124 87.8527 242.233 88.2531 242.124 88.8539C241.907 89.7549 239.194 93.7598 238.217 94.3605C237.457 94.8611 237.566 96.0626 236.372 96.0626C236.372 96.7634 236.264 97.4643 236.264 98.1651C236.264 98.5656 236.264 98.9661 236.264 99.9673ZM181.457 -103.679C179.938 -103.579 179.938 -102.778 180.047 -101.777C180.155 -100.775 180.155 -98.7729 179.721 -97.9719C179.504 -97.4713 179.395 -97.2711 179.721 -96.8706C180.806 -95.6691 179.178 -95.9695 178.853 -95.569C179.287 -95.3688 179.612 -95.2686 180.155 -94.9683C179.612 -93.6667 178.853 -92.5654 178.636 -91.1637C178.527 -90.2626 179.287 -89.4616 178.853 -88.5605C178.744 -88.4604 178.636 -88.3603 178.527 -88.2602C178.31 -88.4604 178.093 -88.5605 177.876 -88.7608C177.116 -87.5593 178.636 -87.8597 178.744 -87.5593C178.744 -86.5581 178.744 -85.7571 178.744 -85.0563C178.31 -84.9562 177.984 -84.8561 177.767 -84.7559C178.31 -84.1552 178.636 -83.6546 179.178 -83.154C178.636 -82.7535 178.093 -82.353 177.767 -82.1528C178.636 -80.8512 178.527 -79.7499 178.202 -78.4483C178.093 -78.2481 178.093 -77.9477 178.093 -77.8476C179.504 -77.347 178.636 -75.9453 179.287 -74.9441C180.806 -76.9465 179.721 -78.9489 180.264 -81.2517C180.372 -81.3518 180.915 -81.6522 181.349 -81.9526C180.698 -83.4544 180.481 -83.5545 180.915 -84.2553C181.349 -85.1564 180.481 -85.7571 180.698 -86.5581C181.023 -87.4592 181.132 -88.3603 181.24 -89.3615C181.24 -89.5617 180.915 -89.762 180.806 -90.0623C180.698 -90.2626 180.589 -90.563 180.698 -90.7632C181.023 -91.6643 181.349 -92.4653 181.674 -93.3663C180.589 -94.3676 181.566 -95.2686 181.783 -96.1697C181.783 -96.4701 181.566 -96.7705 181.457 -97.0708C181.349 -97.2711 181.24 -97.7717 181.24 -97.7717C182.109 -98.3724 181.457 -99.4737 181.891 -99.9743C182.76 -100.875 181.783 -101.676 182 -102.277C182.868 -104.68 182.109 -107.083 182.434 -109.486C182.543 -110.187 182.651 -110.888 182.76 -111.688C182.543 -111.688 182.109 -111.789 182 -111.688C181.349 -110.988 182.326 -109.886 181.24 -109.286C181.24 -109.286 181.566 -108.685 181.674 -108.384C181.674 -108.084 181.674 -107.584 181.566 -107.483C180.047 -106.182 180.698 -104.98 181.457 -103.679ZM105.271 -79.4495C105.163 -79.4495 105.054 -79.4495 104.837 -79.4495C104.837 -78.7487 104.946 -78.0478 104.837 -77.347C104.729 -76.6461 104.512 -75.9453 104.186 -74.9441C104.729 -75.3446 104.946 -75.5448 105.38 -75.8452C105.705 -74.3434 105.814 -72.9417 106.248 -71.54C106.791 -69.3373 107.442 -67.0345 107.876 -64.8319C108.093 -63.6304 108.636 -62.5291 108.527 -61.2275C109.829 -60.3264 108.744 -58.9247 109.612 -57.8234C110.372 -56.8222 110.047 -55.3204 110.372 -54.0188C110.698 -52.6171 111.132 -51.3155 110.915 -49.9138C111.891 -49.1129 111.023 -47.8113 111.566 -47.2106C112.434 -46.1092 111.783 -45.108 112.109 -44.1068C112.217 -43.7063 112.434 -43.3059 112.543 -42.9054C112.76 -42.1044 113.194 -41.3034 113.302 -40.5025C113.411 -38.7003 114.279 -36.9982 114.605 -35.196C114.713 -34.4952 115.473 -33.8945 116.124 -32.8933C116.233 -33.5941 116.341 -33.8945 116.233 -34.0947C115.256 -36.0971 114.93 -38.1997 114.605 -40.2021C114.062 -43.5061 112.543 -46.71 112.76 -50.1141C111.566 -51.2154 112.434 -52.7172 111.674 -54.0188C111.023 -55.2202 111.457 -56.8222 110.915 -58.0236C110.372 -59.125 110.698 -60.2263 110.264 -61.3276C108.744 -65.5327 107.985 -69.938 106.899 -74.1431C106.14 -75.8452 105.705 -77.6473 105.271 -79.4495ZM259.38 -86.2578C259.38 -87.5593 259.163 -88.8609 259.488 -90.0623C259.814 -91.2638 258.078 -92.3651 259.38 -93.4665C258.186 -94.4677 259.054 -95.6691 258.837 -96.7705C258.62 -97.8718 258.403 -98.9731 258.295 -100.074C258.078 -101.777 258.186 -103.679 257.535 -105.281C256.992 -106.582 257.426 -107.784 256.992 -108.885C256.45 -110.187 256.45 -111.488 256.45 -112.79C256.45 -113.591 256.124 -114.292 255.907 -114.992C255.69 -115.894 255.147 -116.695 254.713 -117.495C256.233 -118.196 253.519 -119.498 255.256 -120.099C255.039 -120.499 254.93 -120.9 254.713 -121.2C254.496 -121.5 253.845 -121.801 254.605 -122.201C254.388 -122.502 254.171 -122.802 253.953 -123.102C253.194 -122.602 252.434 -122.201 251.674 -121.801C252.326 -121.3 252.868 -120.699 253.628 -120.499C254.605 -120.199 253.845 -119.999 253.736 -119.698C254.713 -119.097 253.845 -118.397 253.953 -117.796C254.062 -117.195 253.845 -116.594 253.953 -116.094C254.171 -115.193 253.953 -113.891 255.473 -113.691C255.039 -113.491 254.713 -113.29 254.279 -113.19C255.364 -112.389 254.822 -111.688 254.388 -110.888C254.93 -110.787 255.473 -110.687 256.233 -110.587C256.016 -109.986 255.907 -109.486 255.798 -108.985C255.69 -108.685 255.581 -108.284 255.798 -108.084C256.667 -106.482 257.318 -104.58 257.318 -103.178C257.318 -102.377 256.992 -101.376 257.426 -100.775C258.295 -99.1734 258.078 -97.5714 257.643 -95.8694C257.643 -95.6691 257.643 -95.3688 257.752 -95.2686C258.62 -94.768 258.62 -93.9671 258.62 -93.066C258.62 -91.5642 258.62 -89.9622 258.62 -88.4604C258.62 -88.0599 259.054 -87.4592 258.946 -87.1588C257.86 -86.2578 259.054 -86.458 259.38 -86.2578ZM183.519 -7.36243C183.845 -8.664 183.302 -10.0657 184.279 -11.167C184.062 -13.4698 185.69 -15.4722 185.473 -17.775C186.45 -18.6761 185.69 -19.8775 186.233 -20.7786C187.209 -22.6809 186.992 -24.7835 187.86 -26.6858C187.969 -26.886 187.643 -27.2865 187.426 -27.4867C187.209 -27.2865 186.884 -27.1864 186.667 -26.886C185.473 -25.0838 185.039 -22.9813 184.279 -20.9789C183.628 -19.2768 182.868 -17.4746 182.651 -15.6725C182.326 -12.8691 182.543 -10.0657 182.543 -7.2623C182.868 -7.36241 183.085 -7.36243 183.519 -7.36243ZM85.5194 91.457C86.062 93.059 86.2791 94.5608 86.9302 95.8623C87.6899 97.1639 88.2326 98.7659 89.5349 99.5668C89.2093 100.168 88.9923 100.668 88.5582 101.569C90.0775 100.568 90.9457 100.668 91.814 101.569C92.1395 101.97 92.8992 102.27 92.8992 102.771C93.1163 104.072 93.9845 103.371 94.8527 103.472C92.7907 101.569 91.9225 99.2664 90.7287 97.1639C89.5349 95.0613 87.7985 93.4594 86.1706 91.5572C86.1706 91.457 85.845 91.457 85.5194 91.457ZM250.806 66.2265C250.372 65.1252 249.938 64.6246 249.938 64.124C249.829 62.522 249.829 61.0202 249.395 59.4183C249.07 57.8164 248.636 56.2144 248.31 54.7126C247.876 52.3097 246.574 50.107 247.008 47.604C247.008 47.604 246.791 47.5039 246.574 47.4038C246.031 50.0069 247.008 52.4098 247.333 54.9129C247.55 56.6149 247.767 58.2169 248.202 59.8188C248.31 60.2193 247.985 60.82 247.767 61.4207C247.985 61.621 248.31 61.8212 248.636 62.2217C248.744 62.3218 248.31 62.8224 248.31 62.9225C248.527 63.323 249.178 63.5233 249.287 63.9237C249.395 64.2241 249.07 64.7247 248.853 65.2253C249.178 65.3254 249.721 65.6258 250.806 66.2265ZM193.07 -64.0309C192.853 -64.0309 192.744 -64.0309 192.527 -64.0309C191.876 -61.5279 191.333 -59.0248 190.465 -56.7221C189.597 -54.3192 188.729 -52.0164 188.186 -49.4132C189.488 -50.014 190.357 -50.6147 190.682 -51.716C191.116 -53.4181 192.093 -55.1201 191.984 -56.9223C193.178 -57.9235 192.093 -59.2251 192.744 -60.4265C193.287 -61.4277 193.07 -62.8294 193.07 -64.0309Z" fill="#D6A1A4"/>
</g>
<defs>
<clipPath id="clip0">
<rect y="-204" width="266" height="331" fill="white"/>
</clipPath>
</defs>
</svg>
