<svg width="418" height="206" viewBox="0 0 418 206" fill="none" xmlns="http://www.w3.org/2000/svg">
<g clip-path="url(#clip0)">
<path d="M482.73 122.003C479.218 125.343 475.067 127.235 470.702 128.905C467.403 130.129 463.89 130.797 461.123 133.468C460.591 134.025 459.739 134.804 458.888 133.914C458.249 133.357 457.61 133.58 457.504 134.136C457.078 136.14 456.014 136.029 454.63 135.472C453.566 135.138 453.033 135.249 453.885 136.474C453.14 136.919 452.395 137.364 451.543 137.587C438.557 142.485 425.465 147.049 411.947 150.277C404.816 151.946 398.323 155.397 391.404 157.735C378.631 161.964 365.646 163.857 352.341 164.636C344.358 165.193 336.268 164.97 328.285 165.638C312 167.085 295.714 167.753 279.429 169.2C269.104 170.09 258.886 170.536 248.561 170.981C239.194 171.315 229.934 170.09 220.674 168.309C205.772 165.415 190.87 163.078 175.862 160.74C149.784 156.733 124.238 150.054 99.6507 140.036C84.3233 133.802 69.6345 126.122 56.0101 116.326C46.5369 109.425 37.9152 101.522 31.5287 91.2809C22.162 76.031 22.9071 60.2246 33.5511 45.6426C41.747 34.4 52.7104 26.9421 64.3124 20.4859C85.4941 8.68678 108.379 3.90033 132.115 2.67589C148.294 1.8967 164.579 1.8967 180.865 1.8967C187.358 1.8967 193.531 -0.218246 199.811 -1.554C211.307 -4.1142 222.802 -7.11963 234.192 -10.1251C238.875 -11.3495 243.452 -12.9079 247.71 -15.3568C249.945 -16.6925 252.819 -16.6925 254.735 -18.9188C255.693 -20.0319 257.076 -19.364 258.354 -18.5849C259.737 -17.8057 261.44 -17.2491 261.547 -20.0319C261.653 -22.9261 263.037 -24.9297 266.017 -25.4862C267.401 -25.7089 268.465 -26.0428 269.104 -27.4899C269.21 -27.7125 269.317 -27.9351 269.423 -27.9351C272.404 -27.6012 273.362 -30.384 275.278 -31.7198C279.748 -34.7252 284.112 -38.0646 288.689 -40.9587C291.776 -42.9623 294.543 -45.4112 297.417 -47.4149C298.801 -48.4167 300.398 -49.4185 301.568 -50.6429C302.952 -52.09 304.442 -53.3144 305.932 -54.7615C309.232 -58.1009 313.383 -60.1045 316.683 -63.3326C320.728 -67.2285 324.027 -71.7924 327.753 -76.0222C337.758 -87.1535 347.231 -98.73 358.621 -108.414C368.945 -117.208 380.654 -121.215 393.427 -122.106C399.919 -122.551 405.987 -125.111 412.267 -126.781C418.547 -128.562 424.401 -131.456 430.149 -134.573C433.661 -136.465 436.003 -140.027 438.557 -143.255C446.115 -152.271 452.82 -162.29 462.4 -169.191C470.383 -174.979 478.26 -181.213 487.201 -185.665C496.461 -190.34 505.934 -194.125 516.046 -195.683C532.225 -198.132 547.978 -197.464 563.519 -191.12C570.65 -188.225 577.25 -184.552 583.317 -179.766C591.087 -173.644 597.367 -165.963 602.795 -157.503C611.63 -143.366 614.504 -127.671 615.142 -111.197C615.462 -103.183 615.355 -95.168 613.865 -87.2648C613.226 -84.1481 612.162 -80.8087 611.736 -77.6919C610.565 -69.4548 607.159 -62.2195 603.966 -54.9841C600.454 -47.3035 596.409 -39.9569 592.364 -32.6102C589.384 -27.1559 585.339 -22.4808 582.891 -16.6925C582.039 -14.5776 580.123 -13.0192 578.74 -11.2382C577.037 -9.12326 576.504 -6.45175 575.014 -4.22549C569.692 3.56639 564.583 11.4696 559.261 19.2615C549.894 32.8416 542.337 47.6463 534.141 62.0056C530.629 68.2391 527.01 74.4726 523.497 80.7061C521.475 84.2681 519.026 87.4962 516.685 90.7243C515.301 92.6166 513.279 94.3976 511.682 96.1786C509.447 98.8501 506.041 100.409 504.87 104.082C504.231 105.974 502.848 107.421 500.825 108.089C498.377 108.98 497.313 111.762 494.864 112.653C490.607 115.992 486.669 118.998 482.73 122.003ZM219.609 12.1375C217.161 11.6922 214.713 11.1357 212.265 12.694C211.52 13.1393 210.562 12.694 209.817 12.2488C208.433 11.4696 206.836 11.9149 206.091 12.694C204.92 14.0298 203.643 13.5845 202.366 13.5845C201.514 13.5845 200.663 13.2506 199.811 13.4732C193.318 15.0316 186.613 14.6977 180.12 15.8108C177.459 16.256 174.691 15.3656 172.03 16.9239C171.179 17.4805 170.434 19.0388 169.476 18.371C168.411 17.7031 170.434 16.4787 169.369 15.2542C167.347 18.037 164.579 19.8181 161.28 19.8181C158.512 19.8181 155.213 21.933 153.084 17.9257C154.361 20.2633 153.935 21.3764 151.7 21.933C149.146 22.6009 146.485 22.7122 144.036 23.2688C142.014 23.714 140.098 25.0497 137.969 24.6045C135.095 24.0479 132.86 27.6099 129.88 25.6063C129.454 25.2724 128.496 26.0516 129.028 27.1647C129.667 28.6118 132.222 29.2796 133.499 28.0552C135.308 26.4968 137.863 27.8326 139.566 26.1629C140.95 28.8344 142.227 26.6081 143.611 26.0516C143.93 25.9403 144.249 25.6063 144.675 26.0516C145.952 27.4986 148.081 26.9421 149.678 28.8344C149.678 27.1647 148.188 25.7176 149.465 25.2724C151.062 24.7158 150.529 27.276 152.019 27.9439C152.339 26.1629 153.51 25.6063 155.213 25.8289C160.428 26.7195 165.218 24.3819 170.008 23.0461C172.882 22.2669 175.756 21.8217 178.523 21.5991C183.419 21.1538 188.316 19.818 193.106 18.9275C198.747 17.9257 204.495 16.59 210.136 15.0316C213.116 14.475 216.735 14.5863 219.609 12.1375C223.867 12.0262 225.57 10.913 225.57 8.1302C223.654 9.7999 220.886 9.57729 219.609 12.1375ZM235.362 151.724C239.62 152.948 243.452 153.059 247.177 153.171C278.045 154.173 308.594 149.943 339.248 147.382C337.013 146.937 238.981 151.167 235.362 151.724ZM513.492 66.2355C500.825 79.7043 487.627 92.8392 475.812 107.087C492.31 97.5144 504.338 83.3776 513.492 66.2355ZM37.8087 79.9269C37.2765 81.8192 37.7023 82.9324 38.1281 84.0455C40.2569 90.0564 44.4081 94.3976 48.6657 98.6275C50.688 100.631 50.9009 100.631 53.7748 99.0728C46.7497 97.5144 43.5565 93.3958 46.0047 89.1659C44.6209 88.3867 41.8535 87.4962 42.4921 86.4944C43.9823 83.7116 41.6406 83.9342 40.7891 83.2663C39.7247 82.3758 38.4474 81.8192 37.8087 79.9269ZM261.866 18.8162C254.096 20.3746 246.432 22.7122 238.875 25.2724C246.964 24.7158 254.841 23.4914 261.866 18.8162ZM48.2399 35.1792C56.4358 29.7249 64.8446 24.4932 73.4663 19.7067C64.3124 23.3801 55.9036 28.5004 48.2399 35.1792ZM272.617 128.014C266.124 126.901 260.163 129.461 253.99 130.908C260.482 131.465 266.549 129.572 272.617 128.014ZM52.3911 101.522C56.1165 106.531 58.0324 106.865 61.0128 102.301C57.6067 104.304 55.5843 99.4067 52.3911 101.522ZM479.643 110.538C479.537 110.315 479.324 110.093 479.218 109.87C473.896 112.876 468.68 115.992 463.358 118.998C463.465 119.22 463.571 119.443 463.677 119.666C469.425 117.551 474.428 113.877 479.643 110.538ZM302.42 126.567C297.63 126.79 292.734 125.565 288.263 128.237C292.947 127.124 297.737 127.791 302.42 126.567ZM202.259 73.3595C205.878 73.2482 209.604 73.5821 213.01 71.1332C209.178 71.5785 205.559 71.4672 202.259 73.3595ZM250.477 68.4617C253.032 68.2391 255.693 68.1278 258.141 65.2336C254.735 65.5676 252.499 66.792 250.477 68.4617ZM210.136 69.2409C212.797 68.1278 215.777 69.5749 218.864 67.4599C215.458 67.4599 212.691 67.9052 210.136 69.2409ZM128.283 28.8344C127.645 27.3873 126.154 27.8326 126.048 26.3855C126.048 26.0516 123.493 28.1665 123.919 28.6118C125.196 29.7249 126.474 28.2778 128.283 28.8344ZM474.747 105.195C473.151 104.972 471.767 104.75 471.022 106.085C470.809 106.531 471.235 107.31 471.873 107.421C473.363 107.755 474.002 106.642 474.747 105.195Z" fill="#7BAFC5"/>
</g>
<defs>
<clipPath id="clip0">
<rect y="-162" width="590" height="368" fill="white"/>
</clipPath>
</defs>
</svg>
