<svg width="304" height="312" viewBox="0 0 304 312" fill="none" xmlns="http://www.w3.org/2000/svg">
<path d="M284.057 93.8175C283.864 93.73 283.732 93.5287 283.732 93.31C283.732 93.0125 283.978 92.7675 284.285 92.7675H286.951V90.1163C286.916 89.8188 287.135 89.5475 287.433 89.5125C287.731 89.4775 288.003 89.6962 288.038 89.9937C288.047 90.0375 288.047 90.0812 288.038 90.125V93.8262H284.285C284.206 93.835 284.136 93.835 284.057 93.8175Z" fill="#110580"/>
<path d="M229.419 93.7738C229.217 93.6863 229.094 93.4938 229.094 93.275C229.094 92.9687 229.34 92.7237 229.647 92.7237H236.479C236.777 92.7587 236.996 93.03 236.961 93.3275C236.935 93.5813 236.733 93.7825 236.479 93.8088H229.647C229.559 93.8263 229.489 93.8088 229.419 93.7738ZM243.082 93.7738C242.811 93.6513 242.679 93.3363 242.802 93.065C242.89 92.8637 243.082 92.7412 243.302 92.7412H250.142C250.441 92.7762 250.66 93.0475 250.625 93.345C250.598 93.5988 250.397 93.8 250.142 93.8263H243.31C243.232 93.8263 243.144 93.8175 243.074 93.7825L243.082 93.7738ZM256.746 93.7738C256.545 93.6863 256.422 93.485 256.422 93.2663C256.422 92.9688 256.667 92.7237 256.974 92.7237H263.806C264.105 92.6887 264.376 92.9075 264.411 93.205C264.447 93.5025 264.227 93.7738 263.929 93.8088C263.885 93.8175 263.841 93.8175 263.798 93.8088H256.966C256.887 93.8175 256.808 93.8088 256.729 93.7825L256.746 93.7738ZM270.41 93.7738C270.209 93.6863 270.086 93.485 270.086 93.2663C270.086 92.9688 270.331 92.7237 270.63 92.7237H277.47C277.768 92.7237 278.014 92.9687 278.014 93.275C278.014 93.5725 277.768 93.8175 277.47 93.8175H270.63C270.551 93.8263 270.472 93.8263 270.401 93.8L270.41 93.7738Z" fill="#110580"/>
<path d="M219.026 93.8263V90.0813C219.061 89.7838 219.333 89.565 219.631 89.6C219.885 89.6263 220.087 89.8275 220.113 90.0813V92.7413H222.78C223.078 92.7063 223.35 92.925 223.385 93.2225C223.42 93.52 223.201 93.7913 222.902 93.8263C222.859 93.835 222.815 93.835 222.771 93.8263H219.026Z" fill="#110580"/>
<path d="M219.368 84.245C219.166 84.1575 219.043 83.9563 219.043 83.7375V77.4113C219.008 77.1138 219.228 76.8425 219.526 76.8075C219.824 76.7725 220.096 76.9913 220.131 77.2888C220.14 77.3325 220.14 77.3763 220.131 77.42V83.7375C220.131 84.0438 219.885 84.2888 219.578 84.2888C219.508 84.2888 219.438 84.2713 219.368 84.245ZM219.368 71.575C219.166 71.4963 219.035 71.3213 219.017 71.1113V64.75C219.052 64.4525 219.324 64.2338 219.622 64.2688C219.877 64.295 220.078 64.4963 220.105 64.75V71.1113C220.105 71.4088 219.859 71.6538 219.561 71.6538H219.552C219.5 71.6363 219.438 71.61 219.368 71.575ZM219.368 58.9225C219.166 58.835 219.043 58.6425 219.043 58.4238V52.0888C219.079 51.7913 219.35 51.5725 219.649 51.6075C219.903 51.6338 220.105 51.835 220.131 52.0888V58.4238C220.131 58.7213 219.885 58.9663 219.578 58.9663C219.508 58.9663 219.438 58.9488 219.377 58.9225H219.368Z" fill="#110580"/>
<path d="M219.394 46.2613C219.193 46.1738 219.07 45.9725 219.07 45.7538V42.0088H222.823C223.122 42.0438 223.341 42.315 223.306 42.6125C223.279 42.8663 223.078 43.0675 222.823 43.0938H220.157V45.745C220.157 46.0513 219.912 46.2963 219.605 46.2963C219.535 46.305 219.464 46.2875 219.394 46.2613Z" fill="#110580"/>
<path d="M229.419 43.0588C229.226 42.9713 229.094 42.7788 229.094 42.56C229.094 42.2625 229.34 42.0175 229.638 42.0175H229.647H236.479C236.777 41.9825 237.049 42.2013 237.084 42.4988C237.119 42.7963 236.9 43.0675 236.601 43.1025C236.557 43.1113 236.514 43.1113 236.47 43.1025H229.638C229.559 43.1025 229.489 43.085 229.419 43.0588ZM243.082 43.0588C242.881 42.9713 242.758 42.7788 242.758 42.56C242.758 42.2625 243.004 42.0175 243.31 42.0175H250.142C250.441 42.0525 250.66 42.3238 250.625 42.6213C250.598 42.875 250.397 43.0763 250.142 43.1025H243.302C243.232 43.1025 243.161 43.085 243.1 43.0588H243.082ZM256.755 43.0588C256.553 42.9713 256.431 42.77 256.431 42.5513C256.431 42.2538 256.676 42.0088 256.974 42.0088H263.806C264.113 42.0088 264.359 42.2538 264.359 42.56C264.359 42.8575 264.113 43.1025 263.815 43.1025H263.806H256.966C256.895 43.1113 256.834 43.1025 256.764 43.0763L256.755 43.0588ZM270.41 43.0588C270.209 42.9713 270.086 42.77 270.086 42.5513C270.086 42.2538 270.331 42.0088 270.638 42.0088H277.47C277.768 42.0088 278.014 42.2538 278.014 42.5513C278.014 42.8488 277.768 43.0938 277.47 43.0938H270.638C270.568 43.1025 270.498 43.1025 270.428 43.085L270.41 43.0588Z" fill="#110580"/>
<path d="M287.328 46.2962C287.126 46.2087 287.003 46.0163 287.003 45.7975V43.1375H284.337C284.039 43.1025 283.82 42.8313 283.855 42.5338C283.881 42.28 284.083 42.0788 284.337 42.0525H288.073V45.7975C288.073 46.095 287.845 46.3312 287.547 46.34C287.538 46.34 287.538 46.34 287.53 46.34C287.46 46.34 287.389 46.3225 287.328 46.2962Z" fill="#110580"/>
<path d="M287.275 84.28C287.082 84.1925 286.951 84 286.951 83.7813V77.4463C286.986 77.1488 287.258 76.93 287.556 76.965C287.81 76.9913 288.012 77.1925 288.038 77.4463V83.7813C288.03 84.0875 287.775 84.3238 287.468 84.315C287.407 84.315 287.345 84.2975 287.293 84.28H287.275ZM287.275 71.6188C287.074 71.5313 286.942 71.3388 286.942 71.12V64.785C286.907 64.4875 287.126 64.2163 287.424 64.1813C287.723 64.1463 287.994 64.365 288.03 64.6625C288.038 64.7063 288.038 64.75 288.03 64.7938V71.1113C288.03 71.4088 287.784 71.6538 287.486 71.6538C287.433 71.6538 287.372 71.645 287.319 71.6275H287.275V71.6188ZM287.275 58.9663C287.074 58.8788 286.951 58.6775 286.951 58.4587V52.1325C286.916 51.835 287.135 51.5638 287.433 51.5288C287.731 51.4938 288.003 51.7125 288.038 52.01C288.047 52.0538 288.047 52.0975 288.038 52.1413V58.4675C288.038 58.765 287.802 59.01 287.503 59.0188H287.495C287.433 59.01 287.381 59.0013 287.328 58.975L287.275 58.9663Z" fill="#110580"/>
<path d="M87.763 0H268.56C270.533 0 272.129 1.5925 272.129 3.56125V119.56C272.129 121.529 270.533 123.121 268.56 123.121H87.763C85.7897 123.121 84.1935 121.529 84.1935 119.56V3.56125C84.1935 1.5925 85.7897 0 87.763 0Z" fill="#D6D7F0"/>
<path d="M93.0952 24.5875H127.974C129.281 24.5875 130.342 25.6462 130.342 26.95V59.8413C130.342 61.145 129.281 62.2038 127.974 62.2038H93.0952C91.7885 62.2038 90.7273 61.145 90.7273 59.8413V26.95C90.7273 25.6462 91.7885 24.5875 93.0952 24.5875Z" fill="#E8E8F7"/>
<path d="M138.183 24.5875H173.062C174.368 24.5875 175.429 25.6462 175.429 26.95V87.9375C175.429 89.2412 174.368 90.3 173.062 90.3H138.183C136.876 90.3 135.815 89.2412 135.815 87.9375V26.95C135.815 25.6462 136.876 24.5875 138.183 24.5875Z" fill="#E8E8F7"/>
<path d="M183.27 24.5875H218.149C219.456 24.5875 220.517 25.6462 220.517 26.95V104.991C220.517 106.295 219.456 107.354 218.149 107.354H183.27C181.963 107.354 180.902 106.295 180.902 104.991V26.95C180.893 25.6462 181.954 24.5875 183.27 24.5875Z" fill="#E8E8F7"/>
<path d="M228.357 24.5875H263.236C264.543 24.5875 265.604 25.6462 265.604 26.95V72.3625C265.604 73.6662 264.543 74.725 263.236 74.725H228.357C227.051 74.725 225.989 73.6662 225.989 72.3625V26.95C225.989 25.6462 227.051 24.5875 228.357 24.5875Z" fill="#E8E8F7"/>
<path d="M95.4983 27.51H113.03C113.837 27.51 114.494 28.1662 114.494 28.9712V28.98C114.494 29.785 113.837 30.4412 113.03 30.4412H95.4983C94.6914 30.4412 94.0336 29.785 94.0336 28.98V28.9712C94.0424 28.1662 94.6914 27.51 95.4983 27.51Z" fill="#C3C6E6"/>
<path d="M268.569 0H87.763C85.7897 0 84.1935 1.5925 84.1935 3.56125V15.3475H272.138V3.56125C272.138 1.5925 270.542 0 268.569 0Z" fill="#007AC0"/>
<path d="M174.421 3.07124H181.893C182.375 3.07124 182.761 3.45624 182.761 3.93749V11.3925C182.761 11.8737 182.375 12.2587 181.893 12.2587H174.421C173.939 12.2587 173.553 11.8737 173.553 11.3925V3.93749C173.553 3.46499 173.947 3.07124 174.421 3.07124Z" fill="#D5D6F0"/>
<path d="M175.079 4.17375H177.192C177.429 4.17375 177.613 4.36625 177.613 4.59375V10.8063C177.613 11.0425 177.42 11.2263 177.192 11.2263H175.079C174.842 11.2263 174.658 11.0338 174.658 10.8063V4.59375C174.658 4.3575 174.842 4.17375 175.079 4.17375Z" fill="#007AC0"/>
<path d="M179.139 4.17375H181.253C181.49 4.17375 181.674 4.36625 181.674 4.59375V8.19C181.674 8.42625 181.481 8.61 181.253 8.61H179.139C178.902 8.61 178.718 8.4175 178.718 8.19V4.59375C178.718 4.3575 178.902 4.17375 179.139 4.17375Z" fill="#007AC0"/>
<path d="M96.0069 33.3637H125.062C126.15 33.3637 127.027 34.2387 127.027 35.3237V54.3375C127.027 55.4225 126.15 56.2975 125.062 56.2975H96.0069C94.9194 56.2975 94.0424 55.4225 94.0424 54.3375V35.3237C94.0424 34.2387 94.9194 33.3637 96.0069 33.3637Z" fill="white"/>
<path d="M140.586 27.5188H154.399C155.205 27.5188 155.863 28.175 155.863 28.98V28.9888C155.863 29.7938 155.205 30.45 154.399 30.45H140.586C139.779 30.45 139.121 29.7938 139.121 28.9888V28.98C139.13 28.175 139.779 27.5188 140.586 27.5188Z" fill="#C3C6E6"/>
<path d="M141.094 33.3637H170.15C171.237 33.3637 172.114 34.2387 172.114 35.3237V46.9262C172.114 48.0112 171.237 48.8862 170.15 48.8862H141.094C140.007 48.8862 139.13 48.0112 139.13 46.9262V35.3237C139.13 34.2387 140.007 33.3637 141.094 33.3637Z" fill="white"/>
<path d="M185.682 27.51H207.677C208.484 27.51 209.142 28.1662 209.142 28.9712V28.98C209.142 29.785 208.484 30.4412 207.677 30.4412H185.682C184.875 30.4412 184.217 29.785 184.217 28.98V28.9712C184.217 28.1662 184.875 27.51 185.682 27.51Z" fill="#C3C6E6"/>
<path d="M186.182 59.9725H215.237C216.325 59.9725 217.202 60.8475 217.202 61.9325V99.4788C217.202 100.564 216.325 101.439 215.237 101.439H186.182C185.094 101.439 184.217 100.564 184.217 99.4788V61.9325C184.217 60.8475 185.094 59.9725 186.182 59.9725Z" fill="white"/>
<path d="M186.182 33.3637H215.237C216.325 33.3637 217.202 34.2387 217.202 35.3237V55.0813C217.202 56.1663 216.325 57.0413 215.237 57.0413H186.182C185.094 57.0413 184.217 56.1663 184.217 55.0813V35.3237C184.217 34.2387 185.094 33.3637 186.182 33.3637Z" fill="white"/>
<path d="M141.349 51.835H170.404C171.492 51.835 172.369 52.71 172.369 53.795V82.4337C172.369 83.5187 171.492 84.3937 170.404 84.3937H141.349C140.261 84.3937 139.384 83.5187 139.384 82.4337V53.8038C139.375 52.7188 140.261 51.835 141.349 51.835Z" fill="white"/>
<path d="M230.769 27.51H241.609C242.416 27.51 243.074 28.1662 243.074 28.9712V28.98C243.074 29.785 242.416 30.4412 241.609 30.4412H230.769C229.962 30.4412 229.305 29.785 229.305 28.98V28.9712C229.305 28.1662 229.962 27.51 230.769 27.51Z" fill="#C3C6E6"/>
<path d="M231.269 33.3637H260.325C261.412 33.3637 262.289 34.2387 262.289 35.3237V48.405C262.289 49.49 261.412 50.365 260.325 50.365H231.269C230.182 50.365 229.305 49.49 229.305 48.405V35.3237C229.305 34.2387 230.182 33.3637 231.269 33.3637Z" fill="white"/>
<path d="M231.269 53.2962H260.325C261.412 53.2962 262.289 54.1713 262.289 55.2563V66.9462C262.289 68.0312 261.412 68.9062 260.325 68.9062H231.269C230.182 68.9062 229.305 68.0312 229.305 66.9462V55.2563C229.305 54.1713 230.182 53.2962 231.269 53.2962Z" fill="white"/>
<path d="M99.2957 37.555H111.627C112.433 37.555 113.091 38.2112 113.091 39.0162V39.025C113.091 39.83 112.433 40.4863 111.627 40.4863H99.2957C98.4889 40.4863 97.8311 39.83 97.8311 39.025V39.0162C97.8311 38.2112 98.4889 37.555 99.2957 37.555Z" fill="#E8E8F7"/>
<path d="M99.2957 44.065H116.827C117.634 44.065 118.292 44.7213 118.292 45.5263V45.535C118.292 46.34 117.634 46.9963 116.827 46.9963H99.2957C98.4889 46.9963 97.8311 46.34 97.8311 45.535V45.5263C97.8311 44.7213 98.4889 44.065 99.2957 44.065Z" fill="#E8E8F7"/>
<path d="M189.47 80.5437H201.801C202.608 80.5437 203.266 81.2 203.266 82.005V82.0138C203.266 82.8188 202.608 83.475 201.801 83.475H189.47C188.664 83.475 188.006 82.8188 188.006 82.0138V82.005C188.006 81.1913 188.664 80.5437 189.47 80.5437Z" fill="#E8E8F7"/>
<path d="M189.47 87.0538H207.002C207.809 87.0538 208.467 87.71 208.467 88.515V88.5238C208.467 89.3288 207.809 89.985 207.002 89.985H189.47C188.664 89.985 188.006 89.3288 188.006 88.5238V88.515C188.006 87.7013 188.664 87.0538 189.47 87.0538Z" fill="#E8E8F7"/>
<path d="M189.47 93.5638H198.828C199.635 93.5638 200.293 94.22 200.293 95.025V95.0337C200.293 95.8387 199.635 96.495 198.828 96.495H189.47C188.664 96.495 188.006 95.8387 188.006 95.0337V95.025C188.006 94.22 188.664 93.5638 189.47 93.5638Z" fill="#E8E8F7"/>
<path d="M144.383 56.3062H156.714C157.521 56.3062 158.179 56.9625 158.179 57.7675V57.7762C158.179 58.5812 157.521 59.2375 156.714 59.2375H144.383C143.576 59.2375 142.918 58.5812 142.918 57.7762V57.7675C142.918 56.9537 143.576 56.3062 144.383 56.3062Z" fill="#E8E8F7"/>
<path d="M144.383 69.3262H166.379C167.186 69.3262 167.843 69.9825 167.843 70.7875V70.7962C167.843 71.6012 167.186 72.2575 166.379 72.2575H144.383C143.576 72.2575 142.918 71.6012 142.918 70.7962V70.7875C142.918 69.9825 143.576 69.3262 144.383 69.3262Z" fill="#E8E8F7"/>
<path d="M144.383 75.8363H156.714C157.521 75.8363 158.179 76.4925 158.179 77.2975V77.3062C158.179 78.1112 157.521 78.7675 156.714 78.7675H144.383C143.576 78.7675 142.918 78.1112 142.918 77.3062V77.2975C142.918 76.4925 143.576 75.8363 144.383 75.8363Z" fill="#E8E8F7"/>
<path d="M144.383 62.8163H161.915C162.722 62.8163 163.379 63.4725 163.379 64.2775V64.2863C163.379 65.0913 162.722 65.7475 161.915 65.7475H144.383C143.576 65.7475 142.918 65.0913 142.918 64.2863V64.2775C142.918 63.4725 143.576 62.8163 144.383 62.8163Z" fill="#E8E8F7"/>
<path d="M189.47 44.065H201.801C202.608 44.065 203.266 44.7213 203.266 45.5263V45.535C203.266 46.34 202.608 46.9963 201.801 46.9963H189.47C188.664 46.9963 188.006 46.34 188.006 45.535V45.5263C188.006 44.7213 188.664 44.065 189.47 44.065Z" fill="#E8E8F7"/>
<path d="M193.759 37.555H211.291C212.098 37.555 212.755 38.2112 212.755 39.0162V39.025C212.755 39.83 212.098 40.4863 211.291 40.4863H193.759C192.952 40.4863 192.294 39.83 192.294 39.025V39.0162C192.294 38.2112 192.952 37.555 193.759 37.555Z" fill="#E8E8F7"/>
<path d="M234.558 44.065H246.889C247.696 44.065 248.353 44.7213 248.353 45.5263V45.535C248.353 46.34 247.696 46.9963 246.889 46.9963H234.558C233.751 46.9963 233.093 46.34 233.093 45.535V45.5263C233.102 44.7213 233.751 44.065 234.558 44.065Z" fill="#E8E8F7"/>
<path d="M234.558 37.555H252.089C252.896 37.555 253.554 38.2112 253.554 39.0162V39.025C253.554 39.83 252.896 40.4863 252.089 40.4863H234.558C233.751 40.4863 233.093 39.83 233.093 39.025V39.0162C233.102 38.2112 233.751 37.555 234.558 37.555Z" fill="#E8E8F7"/>
<path d="M238.847 57.505H254.887C255.694 57.505 256.352 58.1613 256.352 58.9663V58.975C256.352 59.78 255.694 60.4362 254.887 60.4362H238.847C238.04 60.4362 237.382 59.78 237.382 58.975V58.9663C237.382 58.1613 238.04 57.505 238.847 57.505Z" fill="#E8E8F7"/>
<path d="M144.383 37.555H161.915C162.722 37.555 163.379 38.2112 163.379 39.0162V39.025C163.379 39.83 162.722 40.4863 161.915 40.4863H144.383C143.576 40.4863 142.918 39.83 142.918 39.025V39.0162C142.918 38.2112 143.576 37.555 144.383 37.555Z" fill="#E8E8F7"/>
<path d="M215.228 59.9987H186.182C185.094 59.9987 184.217 60.8825 184.217 61.9675V76.3788H217.202V61.9413C217.184 60.865 216.307 59.9987 215.228 59.9987Z" fill="#ACAFE0"/>
<path d="M190.853 39.2495C190.98 38.472 190.45 37.7394 189.671 37.6132C188.892 37.487 188.157 38.015 188.031 38.7925C187.905 39.5701 188.434 40.3027 189.213 40.4289C189.992 40.5551 190.727 40.027 190.853 39.2495Z" fill="#FF7A82"/>
<path d="M234.523 60.3925C235.312 60.3925 235.952 59.7539 235.952 58.9662C235.952 58.1786 235.312 57.54 234.523 57.54C233.733 57.54 233.093 58.1786 233.093 58.9662C233.093 59.7539 233.733 60.3925 234.523 60.3925Z" fill="#FF7A82"/>
<path d="M216.167 115.115H300.334C302.36 115.115 304 116.751 304 118.772V159.521C304 161.542 302.36 163.179 300.334 163.179H216.167C214.141 163.179 212.501 161.542 212.501 159.521V118.772C212.501 116.76 214.15 115.115 216.167 115.115Z" fill="white"/>
<path d="M235.154 129.334H283.153C283.96 129.334 284.618 129.99 284.618 130.795V130.804C284.618 131.609 283.96 132.265 283.153 132.265H235.154C234.347 132.265 233.69 131.609 233.69 130.804V130.795C233.69 129.99 234.347 129.334 235.154 129.334Z" fill="#E8E8F7"/>
<path d="M235.154 135.844H265.324C266.13 135.844 266.788 136.5 266.788 137.305V137.314C266.788 138.119 266.13 138.775 265.324 138.775H235.154C234.347 138.775 233.69 138.119 233.69 137.314V137.305C233.69 136.5 234.347 135.844 235.154 135.844Z" fill="#E8E8F7"/>
<path d="M221.218 122.824H237.259C238.066 122.824 238.724 123.48 238.724 124.285V124.294C238.724 125.099 238.066 125.755 237.259 125.755H221.218C220.412 125.755 219.754 125.099 219.754 124.294V124.285C219.754 123.471 220.412 122.824 221.218 122.824Z" fill="#AAAAE3"/>
<path d="M221.289 144.795H230.471V155.488H221.289C220.447 155.488 219.763 154.805 219.763 153.965V146.326C219.754 145.477 220.438 144.795 221.289 144.795Z" fill="#E8E8F7"/>
<path d="M226.638 149.87H225.376V148.601C225.376 148.461 225.262 148.339 225.112 148.339C224.972 148.339 224.849 148.453 224.849 148.601V149.87H223.578C223.437 149.87 223.315 149.984 223.315 150.133C223.315 150.273 223.429 150.395 223.578 150.395H224.849V151.664C224.849 151.804 224.963 151.926 225.112 151.926C225.253 151.926 225.376 151.813 225.376 151.664V150.378H226.638C226.779 150.378 226.902 150.264 226.902 150.115C226.902 149.975 226.788 149.853 226.638 149.853V149.87Z" fill="#AAAAE3"/>
<path d="M220.815 129.334H228.165C228.743 129.334 229.217 129.806 229.217 130.384V137.716C229.217 138.294 228.743 138.766 228.165 138.766H220.815C220.236 138.766 219.763 138.294 219.763 137.716V130.384C219.754 129.806 220.227 129.334 220.815 129.334Z" fill="#FF7A82"/>
<path d="M295.493 145.355C295.879 145.355 296.195 145.67 296.195 146.055V154.201C296.195 154.586 295.879 154.901 295.493 154.901H221.017C220.631 154.901 220.315 154.586 220.315 154.201V146.055C220.315 145.67 220.631 145.355 221.017 145.355H295.493ZM295.493 144.804H221.017C220.324 144.804 219.763 145.364 219.754 146.055V154.201C219.754 154.893 220.324 155.452 221.017 155.452H295.493C296.186 155.452 296.747 154.893 296.747 154.201V146.055C296.747 145.364 296.186 144.804 295.493 144.804Z" fill="#E8E8F7"/>
<path opacity="0.3" d="M191.654 53.9525C191.663 51.9837 190.067 50.3825 188.094 50.3737C188.085 50.3737 188.085 50.3737 188.076 50.3737H84.1935V51.8525H184.375C186.34 51.8525 187.936 53.445 187.936 55.405V55.4137V123.112H191.646L191.654 53.9525Z" fill="#3B3FAD"/>
<path d="M27.5383 64.8113C27.4944 64.8638 27.433 64.9075 27.3716 64.9338C27.1085 65.0388 26.8104 64.9163 26.7051 64.6625C26.3017 63.7088 26.0035 62.7112 25.8106 61.6962C25.7492 61.4162 25.9333 61.145 26.214 61.0925C26.4946 61.0312 26.7665 61.215 26.8191 61.495C26.9945 62.44 27.2664 63.3675 27.6435 64.26C27.7312 64.435 27.6874 64.6625 27.5383 64.8113Z" fill="#110580"/>
<path d="M106.022 27.545C105.979 27.5888 105.926 27.6238 105.873 27.6588L105.189 27.9825C103.619 28.7263 101.979 29.5138 100.225 30.3013C99.971 30.415 99.6641 30.2925 99.5501 30.0388C99.4361 29.785 99.5413 29.4875 99.7956 29.3738C99.7956 29.3738 99.8044 29.3738 99.8044 29.365C101.541 28.6213 103.163 27.8075 104.742 27.0638L105.417 26.74C105.672 26.6263 105.979 26.7313 106.093 26.9938C106.189 27.1688 106.163 27.3875 106.022 27.545ZM94.6213 32.4713C94.5686 32.5325 94.4985 32.5763 94.4195 32.6025C92.4375 33.2938 90.4116 33.845 88.3506 34.265C88.0787 34.3263 87.8156 34.16 87.7542 33.8888C87.7542 33.88 87.7542 33.8713 87.7454 33.8625C87.6841 33.5913 87.8595 33.32 88.1313 33.2675C88.1313 33.2675 88.1313 33.2675 88.1401 33.2675C90.1572 32.8563 92.1393 32.3138 94.0775 31.64C94.3318 31.5438 94.6212 31.675 94.7177 31.9288C94.7177 31.9375 94.7265 31.9375 94.7265 31.9463C94.7966 32.1388 94.7528 32.34 94.6213 32.4713ZM82.4658 34.8163C82.3781 34.9125 82.2466 34.9738 82.1062 34.9738C80.0014 35.0175 77.8966 34.8425 75.8268 34.4575C75.5462 34.405 75.362 34.1425 75.4146 33.8625C75.4672 33.5913 75.7303 33.4075 76.0022 33.46H76.011C78.0106 33.8363 80.0452 34.0025 82.0799 33.9588C82.3606 33.9588 82.5974 34.1775 82.5974 34.4663C82.6149 34.5888 82.5623 34.72 82.4658 34.8163ZM70.3718 32.4975C70.2227 32.655 69.9859 32.69 69.7929 32.5938C67.8547 31.7713 66.0042 30.73 64.294 29.505C64.0485 29.3563 63.9783 29.0413 64.1274 28.805C64.2765 28.56 64.5922 28.49 64.829 28.6388C64.8466 28.6475 64.8729 28.665 64.8904 28.6825C66.548 29.8638 68.3283 30.8525 70.1964 31.6488C70.4507 31.7538 70.5735 32.0513 70.4682 32.305V32.3138C70.4419 32.375 70.4156 32.4363 70.3718 32.4975ZM67.9424 25.5325C67.1443 26.3638 66.2936 27.1425 65.3815 27.8513C65.1623 28.035 64.8466 28.0088 64.6624 27.7988C64.6536 27.79 64.6449 27.7813 64.6449 27.7725C64.4607 27.5538 64.4958 27.2213 64.7238 27.0463C64.7326 27.0463 64.7326 27.0375 64.7413 27.0375C65.6096 26.355 66.434 25.6113 67.1882 24.815C67.8196 24.15 68.416 23.45 68.951 22.715C69.1001 22.47 69.4071 22.3913 69.6526 22.54C69.8982 22.6888 69.9771 22.995 69.828 23.24C69.8105 23.2663 69.7929 23.2925 69.7754 23.3188C69.2053 24.0975 68.5914 24.8413 67.9161 25.5413L67.9424 25.5325ZM60.1721 31.115C60.1282 31.1588 60.0844 31.1938 60.0317 31.22C58.1637 32.1475 56.243 32.9788 54.2961 33.7138C54.0417 33.8188 53.7435 33.6963 53.6383 33.4338V33.425C53.5331 33.1625 53.6646 32.865 53.9277 32.7688C56.2343 31.8588 57.9795 31.115 59.5757 30.2838C59.8213 30.1525 60.1282 30.2575 60.2598 30.5025C60.2598 30.5025 60.2598 30.5025 60.2598 30.5113C60.365 30.7038 60.3299 30.9488 60.1721 31.115ZM72.4766 17.8413C72.3451 17.9725 72.1521 18.025 71.9679 17.9813C71.6961 17.9025 71.5382 17.6225 71.6084 17.3513C71.889 16.3363 72.0381 15.2775 72.0556 14.2275C72.0732 13.3088 71.9504 12.3813 71.7136 11.4975C71.6347 11.2263 71.7925 10.955 72.0644 10.8763C72.0644 10.8763 72.0644 10.8763 72.0732 10.8763C72.345 10.8063 72.6257 10.9638 72.7046 11.235C72.9677 12.2238 73.0993 13.2388 73.0817 14.2538C73.0554 15.3913 72.8976 16.5288 72.5994 17.6225C72.5731 17.7013 72.538 17.78 72.4766 17.8413ZM60.4176 25.2525L60.3738 25.2963C60.1633 25.48 59.8388 25.4625 59.6546 25.2438C59.6459 25.235 59.6371 25.2263 59.6371 25.2175C58.2602 23.59 57.1727 21.735 56.4272 19.74C56.3307 19.4775 56.4711 19.18 56.7342 19.0838C56.9973 18.9875 57.2955 19.1275 57.3919 19.39C58.0935 21.28 59.1197 23.03 60.4176 24.5788C60.5843 24.78 60.5843 25.06 60.4176 25.2525ZM48.6656 35.7525C48.613 35.805 48.5428 35.8488 48.4727 35.875L46.4468 36.6713C45.1312 37.205 43.9385 37.73 42.7896 38.2725C42.5441 38.395 42.2459 38.2988 42.1231 38.0538C42.1231 38.045 42.1143 38.045 42.1143 38.0363C41.9915 37.7913 42.088 37.485 42.3423 37.3625C42.3423 37.3625 42.3511 37.3625 42.3511 37.3538C43.5175 36.8025 44.7366 36.2688 46.0609 35.735C46.7362 35.4638 47.4203 35.1925 48.1043 34.9388C48.3674 34.8338 48.6569 34.965 48.7621 35.2188C48.7621 35.2275 48.7621 35.2275 48.7709 35.2363C48.8323 35.4025 48.7972 35.6125 48.6656 35.7525ZM26.7841 55.755C26.6613 55.8775 26.4859 55.93 26.3105 55.9038C26.0386 55.8425 25.8632 55.58 25.9071 55.3C26.3368 53.2263 27.091 51.2225 28.1347 49.3763C28.2925 49.14 28.617 49.0875 28.8451 49.245C29.0468 49.385 29.1257 49.6475 29.0205 49.875C28.0207 51.6513 27.3103 53.5675 26.9069 55.5538C26.8806 55.6325 26.8367 55.7113 26.7841 55.7725V55.755ZM37.5275 41.1863L37.4398 41.2563C35.7296 42.3675 34.1247 43.645 32.6776 45.08C32.4759 45.2813 32.1426 45.2813 31.9322 45.08C31.7217 44.8788 31.7305 44.5463 31.9322 44.3363C33.4319 42.8575 35.0719 41.5275 36.8435 40.3813C37.0715 40.215 37.3872 40.2588 37.5626 40.4863C37.5714 40.495 37.5801 40.5125 37.5889 40.5213C37.7117 40.7313 37.6942 41.0025 37.5275 41.1863ZM69.3983 6.49251C69.2053 6.69376 68.8808 6.70251 68.6704 6.51001C68.6616 6.50126 68.6616 6.50126 68.6528 6.49251C67.4601 5.40751 65.9078 4.79501 64.294 4.77751C63.9695 4.77751 63.6451 4.80376 63.3206 4.85626C63.0575 4.88251 62.8207 4.69876 62.768 4.44501C62.7242 4.16501 62.9171 3.91126 63.189 3.85876C63.5661 3.79751 63.9432 3.77126 64.3204 3.77126C66.1796 3.78001 67.9775 4.48001 69.3544 5.72251C69.5737 5.90626 69.6 6.23876 69.4158 6.45751L69.4071 6.46626L69.3983 6.49251ZM56.4623 13.8338C56.2606 14.035 55.9361 14.035 55.7344 13.8425C55.6204 13.7375 55.5677 13.58 55.5853 13.4313C55.8045 11.2788 56.5763 9.22251 57.8129 7.44626C57.962 7.20126 58.2777 7.13126 58.5145 7.28001C58.7601 7.42876 58.8302 7.74376 58.6811 7.98001C58.6724 7.99751 58.6548 8.02376 58.6373 8.04126C57.4972 9.66876 56.7868 11.5675 56.5851 13.545C56.5763 13.65 56.5325 13.755 56.4623 13.8338Z" fill="#110580"/>
<path d="M114.661 24.3337C114.573 24.43 114.451 24.4825 114.328 24.4912C113.381 24.5875 112.442 24.815 111.548 25.1562C111.276 25.2437 110.986 25.0862 110.907 24.8237C110.829 24.57 110.96 24.2987 111.206 24.1937C112.188 23.8175 113.214 23.5637 114.258 23.45C114.538 23.4325 114.775 23.6337 114.801 23.9137V23.9225C114.828 24.08 114.775 24.2287 114.661 24.3337Z" fill="#110580"/>
<path d="M3.56945 51.87H184.366C186.34 51.87 187.936 53.4625 187.936 55.4312V171.43C187.936 173.399 186.34 174.991 184.366 174.991H3.56945C1.59617 174.991 0 173.399 0 171.43V55.4312C0 53.4625 1.59617 51.87 3.56945 51.87Z" fill="white"/>
<path d="M83.9304 82.9325H136.262C137.525 82.9325 138.542 83.9475 138.542 85.2075V110.145C138.542 111.405 137.525 112.42 136.262 112.42H83.9304C82.6675 112.42 81.6502 111.405 81.6502 110.145V85.2075C81.6502 83.9475 82.6763 82.9325 83.9304 82.9325Z" fill="#E8E8F7"/>
<path d="M153.364 101.211H180.578C181.393 101.211 182.051 101.867 182.051 102.681V122.833C182.051 123.646 181.393 124.302 180.578 124.302H153.364C152.548 124.302 151.89 123.646 151.89 122.833V102.681C151.899 101.867 152.557 101.211 153.364 101.211Z" fill="#E8E8F7"/>
<path d="M3.56945 175H16.2511V51.8525H3.56945C1.59617 51.8525 0 53.445 0 55.4137C0 55.4225 0 55.4225 0 55.4312V171.439C0 173.408 1.59617 175 3.56945 175Z" fill="#453069"/>
<path d="M60.7772 51.87H16.2511V175H60.7772V51.87Z" fill="#573E82"/>
<path d="M4.45524 61.4863H11.8046C12.3835 61.4863 12.857 61.9588 12.857 62.5363V69.8688C12.857 70.4463 12.3835 70.9188 11.8046 70.9188H4.45524C3.87641 70.9188 3.40282 70.4463 3.40282 69.8688V62.5363C3.40282 61.9588 3.87641 61.4863 4.45524 61.4863Z" fill="#FF7A82"/>
<path d="M69.3281 67.935H76.6775C77.2563 67.935 77.7299 68.4075 77.7299 68.985V76.3175C77.7299 76.895 77.2563 77.3675 76.6775 77.3675H69.3281C68.7493 77.3675 68.2757 76.895 68.2757 76.3175V68.985C68.2757 68.4075 68.7493 67.935 69.3281 67.935Z" fill="#868AE0"/>
<path d="M4.45524 75.7225H11.8046C12.3835 75.7225 12.857 76.195 12.857 76.7725V84.105C12.857 84.6825 12.3835 85.155 11.8046 85.155H4.45524C3.87641 85.155 3.40282 84.6825 3.40282 84.105V76.7725C3.40282 76.1863 3.87641 75.7225 4.45524 75.7225Z" fill="#868AE0"/>
<path d="M11.7783 90.4925C12.0502 90.4925 12.2782 90.7112 12.2782 90.9912V98.3237C12.2782 98.595 12.059 98.8225 11.7783 98.8225H4.45524C4.18336 98.8225 3.96411 98.595 3.95534 98.3237V90.9912C3.95534 90.72 4.18336 90.5012 4.45524 90.4925H11.8046H11.7783ZM11.8046 89.9412H4.45524C3.87641 89.9412 3.40282 90.4137 3.40282 90.9912V98.3237C3.40282 98.9012 3.87641 99.3737 4.45524 99.3737H11.8046C12.3835 99.3737 12.857 98.9012 12.857 98.3237V90.9912C12.857 90.4137 12.3835 89.9412 11.8046 89.9412Z" fill="#745CA1"/>
<path d="M8.1036 92.8812C7.95451 92.8812 7.84049 93.0037 7.84049 93.1437V94.4038H6.58636C6.44604 94.4038 6.32326 94.5175 6.32326 94.6663C6.32326 94.8063 6.43727 94.92 6.58636 94.9288H7.84926V96.1975C7.84926 96.3375 7.96328 96.46 8.11237 96.46C8.25269 96.46 8.37547 96.3463 8.37547 96.1975V94.9288H9.65592C9.79624 94.9288 9.91902 94.815 9.91902 94.6663C9.91902 94.5263 9.80501 94.4125 9.65592 94.4038H8.3667V93.1437C8.37547 93.0037 8.26146 92.89 8.1036 92.8812C8.11237 92.8812 8.11237 92.8812 8.1036 92.8812Z" fill="#E8E8F7"/>
<path d="M22.4867 77.2012H46.7274C47.5343 77.2012 48.192 77.8575 48.192 78.6625V78.6712C48.192 79.4762 47.5343 80.1325 46.7274 80.1325H22.4867C21.6798 80.1325 21.0221 79.4762 21.0221 78.6712V78.6625C21.0221 77.8575 21.6798 77.2012 22.4867 77.2012Z" fill="#C0AFDB"/>
<path d="M22.4867 61.4863H38.5536C39.3605 61.4863 40.0182 62.1425 40.0182 62.9475V62.9563C40.0182 63.7613 39.3605 64.4175 38.5536 64.4175H22.4867C21.6798 64.4175 21.0221 63.7613 21.0221 62.9563V62.9475C21.0221 62.1425 21.6798 61.4863 22.4867 61.4863Z" fill="white"/>
<path d="M22.4867 84.0262H40.7549C41.5618 84.0262 42.2195 84.6825 42.2195 85.4875V85.4962C42.2195 86.3013 41.5618 86.9575 40.7549 86.9575H22.4867C21.6798 86.9575 21.0221 86.3013 21.0221 85.4962V85.4875C21.0221 84.6737 21.6798 84.0262 22.4867 84.0262Z" fill="#745CA1"/>
<path d="M83.1148 67.935H123.686C124.492 67.935 125.15 68.5913 125.15 69.3963V69.405C125.15 70.21 124.492 70.8663 123.686 70.8663H83.1148C82.3079 70.8663 81.6502 70.21 81.6502 69.405V69.3963C81.6502 68.5825 82.3079 67.935 83.1148 67.935Z" fill="#E8E8F7"/>
<path d="M83.1148 74.445H108.82C109.627 74.445 110.285 75.1013 110.285 75.9063V75.915C110.285 76.72 109.627 77.3763 108.82 77.3763H83.1148C82.3079 77.3763 81.6502 76.72 81.6502 75.915V75.9063C81.6502 75.1013 82.3079 74.445 83.1148 74.445Z" fill="#E8E8F7"/>
<path d="M69.3281 121.17H76.6775C77.2563 121.17 77.7299 121.643 77.7299 122.22V129.552C77.7299 130.13 77.2563 130.602 76.6775 130.602H69.3281C68.7493 130.602 68.2757 130.13 68.2757 129.552V122.22C68.2757 121.643 68.7493 121.17 69.3281 121.17Z" fill="#868AE0"/>
<path d="M152.548 128.59H157.074C157.433 128.59 157.723 128.879 157.723 129.237V133.752C157.723 134.111 157.433 134.4 157.074 134.4H152.548C152.189 134.4 151.899 134.111 151.899 133.752V129.237C151.899 128.887 152.189 128.59 152.548 128.59Z" fill="#868AE0"/>
<path d="M152.548 65.73H157.074C157.433 65.73 157.723 66.0187 157.723 66.3775V70.8925C157.723 71.2512 157.433 71.54 157.074 71.54H152.548C152.189 71.54 151.899 71.2512 151.899 70.8925V66.3775C151.899 66.0275 152.189 65.73 152.548 65.73Z" fill="#FF7A82"/>
<path d="M83.1148 121.17H131.114C131.921 121.17 132.578 121.826 132.578 122.631V122.64C132.578 123.445 131.921 124.101 131.114 124.101H83.1148C82.3079 124.101 81.6502 123.445 81.6502 122.64V122.631C81.6502 121.826 82.3079 121.17 83.1148 121.17Z" fill="#E8E8F7"/>
<path d="M83.1148 127.68H116.248C117.055 127.68 117.713 128.336 117.713 129.141V129.15C117.713 129.955 117.055 130.611 116.248 130.611H83.1148C82.3079 130.611 81.6502 129.955 81.6502 129.15V129.141C81.6502 128.336 82.3079 127.68 83.1148 127.68Z" fill="#E8E8F7"/>
<path d="M83.1148 134.19H123.686C124.492 134.19 125.15 134.846 125.15 135.651V135.66C125.15 136.465 124.492 137.121 123.686 137.121H83.1148C82.3079 137.121 81.6502 136.465 81.6502 135.66V135.651C81.6502 134.846 82.3079 134.19 83.1148 134.19Z" fill="#E8E8F7"/>
<path d="M83.1148 140.7H131.114C131.921 140.7 132.578 141.356 132.578 142.161V142.17C132.578 142.975 131.921 143.631 131.114 143.631H83.1148C82.3079 143.631 81.6502 142.975 81.6502 142.17V142.161C81.6502 141.356 82.3079 140.7 83.1148 140.7Z" fill="#E8E8F7"/>
<path d="M153.364 74.4975H179.069C179.876 74.4975 180.534 75.1537 180.534 75.9587V75.9675C180.534 76.7725 179.876 77.4287 179.069 77.4287H153.364C152.557 77.4287 151.899 76.7725 151.899 75.9675V75.9587C151.899 75.1537 152.548 74.4975 153.364 74.4975Z" fill="#E8E8F7"/>
<path d="M153.364 81.0075H171.632C172.439 81.0075 173.097 81.6638 173.097 82.4688V82.4775C173.097 83.2825 172.439 83.9388 171.632 83.9388H153.364C152.557 83.9388 151.899 83.2825 151.899 82.4775V82.4688C151.899 81.6638 152.548 81.0075 153.364 81.0075Z" fill="#E8E8F7"/>
<path d="M153.364 87.5175H176.096C176.903 87.5175 177.561 88.1738 177.561 88.9788V88.9875C177.561 89.7925 176.903 90.4487 176.096 90.4487H153.364C152.557 90.4487 151.899 89.7925 151.899 88.9875V88.9788C151.899 88.1738 152.548 87.5175 153.364 87.5175Z" fill="#E8E8F7"/>
<path d="M153.364 94.0275H164.204C165.011 94.0275 165.668 94.6838 165.668 95.4888V95.4975C165.668 96.3025 165.011 96.9587 164.204 96.9587H153.364C152.557 96.9587 151.899 96.3025 151.899 95.4975V95.4888C151.899 94.6838 152.548 94.0275 153.364 94.0275Z" fill="#E8E8F7"/>
<path d="M153.364 137.69H171.632C172.439 137.69 173.097 138.346 173.097 139.151V139.16C173.097 139.965 172.439 140.621 171.632 140.621H153.364C152.557 140.621 151.899 139.965 151.899 139.16V139.151C151.899 138.346 152.548 137.69 153.364 137.69Z" fill="#E8E8F7"/>
<path d="M153.364 144.2H179.069C179.876 144.2 180.534 144.856 180.534 145.661V145.67C180.534 146.475 179.876 147.131 179.069 147.131H153.364C152.557 147.131 151.899 146.475 151.899 145.67V145.661C151.899 144.856 152.548 144.2 153.364 144.2Z" fill="#E8E8F7"/>
<path d="M83.1148 147.219H108.82C109.627 147.219 110.285 147.875 110.285 148.68V148.689C110.285 149.494 109.627 150.15 108.82 150.15H83.1148C82.3079 150.15 81.6502 149.494 81.6502 148.689V148.68C81.6502 147.866 82.3079 147.219 83.1148 147.219Z" fill="#E8E8F7"/>
<path d="M22.4867 90.8512H40.7549C41.5618 90.8512 42.2195 91.5075 42.2195 92.3125V92.3212C42.2195 93.1262 41.5618 93.7825 40.7549 93.7825H22.4867C21.6798 93.7825 21.0221 93.1262 21.0221 92.3212V92.3125C21.0221 91.5075 21.6798 90.8512 22.4867 90.8512Z" fill="#745CA1"/>
<path d="M22.4867 97.6763H40.7549C41.5618 97.6763 42.2195 98.3325 42.2195 99.1375V99.1463C42.2195 99.9513 41.5618 100.608 40.7549 100.608H22.4867C21.6798 100.608 21.0221 99.9513 21.0221 99.1463V99.1375C21.0221 98.3238 21.6798 97.6763 22.4867 97.6763Z" fill="#745CA1"/>
<path d="M22.4867 115.5H49.7005C50.5074 115.5 51.1651 116.156 51.1651 116.961V116.97C51.1651 117.775 50.5074 118.431 49.7005 118.431H22.4867C21.6798 118.431 21.0221 117.775 21.0221 116.97V116.961C21.0221 116.148 21.6798 115.5 22.4867 115.5Z" fill="#C0AFDB"/>
<path d="M22.4867 122.316H40.7549C41.5618 122.316 42.2195 122.972 42.2195 123.777V123.786C42.2195 124.591 41.5618 125.248 40.7549 125.248H22.4867C21.6798 125.248 21.0221 124.591 21.0221 123.786V123.777C21.0221 122.972 21.6798 122.316 22.4867 122.316Z" fill="#745CA1"/>
<path d="M22.4867 147.192H49.7005C50.5074 147.192 51.1651 147.849 51.1651 148.654V148.662C51.1651 149.467 50.5074 150.124 49.7005 150.124H22.4867C21.6798 150.124 21.0221 149.467 21.0221 148.662V148.654C21.0221 147.849 21.6798 147.192 22.4867 147.192Z" fill="#C0AFDB"/>
<path d="M22.4867 154.026H40.7549C41.5618 154.026 42.2195 154.682 42.2195 155.487V155.496C42.2195 156.301 41.5618 156.958 40.7549 156.958H22.4867C21.6798 156.958 21.0221 156.301 21.0221 155.496V155.487C21.0221 154.674 21.6798 154.026 22.4867 154.026Z" fill="#745CA1"/>
<path d="M22.4867 129.15H40.7549C41.5618 129.15 42.2195 129.806 42.2195 130.611V130.62C42.2195 131.425 41.5618 132.081 40.7549 132.081H22.4867C21.6798 132.081 21.0221 131.425 21.0221 130.62V130.611C21.0221 129.797 21.6798 129.15 22.4867 129.15Z" fill="#745CA1"/>
<path d="M55.9098 118.414C56.7186 118.414 57.3744 117.76 57.3744 116.953C57.3744 116.145 56.7186 115.491 55.9098 115.491C55.1009 115.491 54.4451 116.145 54.4451 116.953C54.4451 117.76 55.1009 118.414 55.9098 118.414Z" fill="#FF7A82"/>
<path d="M146.716 55.4925C146.821 55.4925 146.9 55.5713 146.9 55.6763V171.185C146.9 171.29 146.821 171.369 146.716 171.369C146.611 171.369 146.532 171.29 146.532 171.185V55.6763C146.532 55.5713 146.611 55.4925 146.716 55.4925Z" fill="#E8E8F7"/>
<path d="M137.832 157.876C138.218 157.868 138.533 158.182 138.542 158.567C138.542 158.585 138.542 158.603 138.542 158.62V166.766C138.542 167.151 138.226 167.466 137.841 167.466H137.832H69.5298C69.1439 167.466 68.8282 167.151 68.8282 166.766V158.62C68.8019 158.235 69.0913 157.903 69.4772 157.885C69.4947 157.885 69.5035 157.885 69.521 157.885H137.832V157.876ZM137.832 157.316H69.5298C68.837 157.316 68.2757 157.876 68.2757 158.567V158.576V166.722C68.2757 167.414 68.8282 167.974 69.521 167.982H69.5298H137.832C138.525 167.982 139.095 167.422 139.095 166.722V158.576C139.095 157.885 138.533 157.316 137.832 157.316Z" fill="#E8E8F7"/>
<path d="M180.797 153.388C181.191 153.405 181.498 153.738 181.498 154.131V162.278C181.481 162.663 181.174 162.96 180.797 162.977H153.153C152.776 162.951 152.478 162.654 152.452 162.278V154.079C152.452 153.685 152.759 153.361 153.153 153.335H180.797V153.388ZM180.797 152.775H153.153C152.46 152.775 151.89 153.335 151.89 154.035V162.181C151.89 162.873 152.452 163.441 153.153 163.441H180.797C181.49 163.441 182.06 162.881 182.06 162.181V154.07C182.06 153.379 181.498 152.81 180.797 152.81V152.775Z" fill="#E8E8F7"/>
<path d="M55.9009 208.695C42.2402 208.695 31.1057 207.433 30.7378 205.853L32.7734 229.667C32.7734 240.973 43.1967 250.198 55.9254 250.198C68.6664 250.198 79.0775 240.949 79.0775 229.667L81.1131 205.816C80.7943 207.433 69.6475 208.695 55.9009 208.695Z" fill="#DEC7B2"/>
<path d="M55.9009 208.695C42.0318 208.695 30.7623 207.408 30.7132 205.791V205.767C30.8236 204.162 42.0563 202.864 55.9009 202.864C69.7455 202.864 80.9537 204.15 81.0886 205.767V205.791C81.0395 207.408 69.7701 208.695 55.9009 208.695Z" fill="#E8D4C1"/>
<path d="M55.9009 208.217C44.19 208.217 34.6986 207.114 34.6741 205.767V205.742C34.7845 204.395 44.2513 203.292 55.9009 203.292C67.5873 203.292 77.0542 204.37 77.1277 205.742V205.767C77.1032 207.114 67.6118 208.217 55.9009 208.217Z" fill="#BA9C7E"/>
<path d="M31.6084 216.069C33.2148 216.118 34.8213 216.731 36.1947 218.066C38.7821 220.565 40.3886 224.411 42.4732 227.339C43.2703 225.759 43.9447 224.154 44.5579 222.488C45.2936 220.516 47.9547 218.666 50.0393 220.271C52.2589 221.986 53.9144 223.934 55.3614 226.359C56.5999 228.442 57.6054 230.916 59.5552 232.472C61.4314 233.979 63.5406 234.42 64.3009 231.737C64.9876 229.397 64.7546 226.861 65.4904 224.522C66.128 222.574 67.1213 220.516 69.1324 219.671C71.5114 218.642 73.8045 219.903 75.9137 220.994C77.1768 221.631 78.4153 222.317 79.6293 223.027L79.2124 228.062C77.0541 226.714 74.4177 225.061 72.1981 224.742C70.8002 224.534 70.9105 225.477 70.8002 226.8C70.7266 227.988 70.7266 229.177 70.6653 230.328C70.5304 232.729 70.187 235.118 68.7645 237.102C65.7356 241.365 60.0335 241.157 56.0235 238.45C53.8653 237.004 52.3079 235.106 50.9345 232.913C50.4808 232.202 50.0639 231.467 49.6101 230.72C47.8934 234.701 45.2569 238.278 40.9281 236.784C38.2426 235.841 36.5013 232.913 34.8826 230.72C34.3798 230.034 33.4601 228.405 32.5404 226.923L31.6084 216.069Z" fill="#EBDBCD"/>
<path d="M21.7124 127.306C22.2397 125.272 24.6432 124.966 26.0657 126.142C28.7512 128.384 30.1492 131.495 31.633 134.57C33.1658 137.816 35.091 140.756 37.2983 143.586C41.811 149.331 46.8142 154.684 50.1374 161.263C56.5508 174.015 58.0714 189.058 53.6691 202.704C53.5342 203.121 54.3803 200.965 53.0069 204.762C51.7684 208.192 46.8878 206.343 46.9369 202.361C46.9859 198.466 45.9313 194.828 44.19 191.349C40.7564 184.476 36.4645 178.07 33.1167 171.112C29.7445 164.129 26.7646 156.938 24.3611 149.588C22.0312 142.434 19.8239 134.839 21.7124 127.306Z" fill="#4C7378"/>
<path d="M53.1541 87.2603C54.8709 84.1243 59.9599 86.2558 58.9298 89.6858C55.9745 99.7798 58.0837 110.474 59.9354 120.568C61.8116 130.87 63.9698 141.124 65.2574 151.499C67.526 169.972 66.7902 190.712 55.0793 206.122C53.8163 207.788 51.1798 206.392 52.2098 204.432C53.3748 202.239 50.444 187.857 49.1442 183.251C47.8198 178.511 46.5077 173.745 45.3182 168.968C43.0005 159.646 41.0998 150.103 40.5725 140.487C39.5792 121.769 44.19 103.651 53.1541 87.2603Z" fill="#57848A"/>
<path d="M58.7214 189.915C60.0948 183.619 59.0892 176.979 60.4381 170.707C61.7625 164.57 63.5529 158.347 66.4224 152.737C69.1447 147.42 73.3018 143.623 78.1823 140.327C82.7686 137.216 88.201 134.166 89.8197 128.469C90.7639 125.101 96.5397 125.603 96.1718 129.339C95.4115 136.959 92.1864 143.672 88.4462 150.262C84.4609 157.269 80.9782 163.958 79.0039 171.81C75.6562 185.273 72.7499 202.741 57.3725 206.882C55.5085 207.347 55.7906 203.354 58.7214 189.915Z" fill="#689399"/>
<path d="M221.693 77.5338L220.933 76.8233L228.217 68.9956L233.907 76.8723L233.036 77.4848L228.107 70.6616L221.693 77.5338Z" fill="#E8D4C1"/>
<path d="M195.905 280.1C193.82 280.651 191.551 279.23 190.546 276.731L185.064 262.815C183.85 259.753 185.089 256.408 187.652 255.759L191.049 254.865C193.611 254.179 196.322 256.494 196.8 259.74L198.884 274.551C199.252 277.172 197.989 279.549 195.905 280.1Z" fill="#7A5B3C"/>
<path d="M108.447 280.1C110.531 280.651 112.8 279.23 113.806 276.731L119.287 262.815C120.501 259.753 119.263 256.408 116.7 255.759L113.303 254.865C110.74 254.179 108.03 256.494 107.552 259.74L105.467 274.551C105.062 277.172 106.338 279.549 108.447 280.1Z" fill="#7A5B3C"/>
<path d="M208.928 293.697C206.205 294.408 203.262 292.57 201.987 289.324L194.862 271.243C193.305 267.286 194.887 262.938 198.235 262.068L202.661 260.904C205.985 260.034 209.516 263.011 210.129 267.225L212.815 286.457C213.318 289.924 211.65 292.987 208.928 293.697Z" fill="#A67C52"/>
<path d="M95.387 293.697C98.1093 294.408 101.052 292.57 102.328 289.324L109.452 271.243C111.01 267.286 109.428 262.938 106.08 262.068L101.653 260.904C98.33 260.034 94.7984 263.011 94.1852 267.225L91.4997 286.457C91.0337 289.924 92.6646 292.987 95.387 293.697Z" fill="#A67C52"/>
<path d="M217.561 221.949H88.7651C81.0395 221.949 74.7365 215.653 74.7365 207.935V154.684C74.7365 146.967 81.0395 140.67 88.7651 140.67H217.536C225.262 140.67 231.565 146.967 231.565 154.684V207.935C231.589 215.653 225.262 221.949 217.561 221.949Z" fill="#676BC4"/>
<path d="M222.355 195.71C219.976 195.734 218.002 197.559 217.794 199.924C216.923 208.989 214.36 229.618 208.768 239.895C204.918 246.951 193.624 247.613 190.619 247.637H115.62C112.616 247.588 101.322 246.951 97.4716 239.895C91.8798 229.618 89.2923 209.013 88.4462 199.924C88.2132 197.547 86.2512 195.759 83.8845 195.71L60.0457 195.367C57.3234 195.342 55.1406 197.608 55.3246 200.352C56.1216 211.659 59.2241 239.454 71.3029 257.339C77.8757 267.029 88.0783 270.03 90.6413 270.643C92.0883 271.121 215.218 270.827 216.212 270.618C219.51 269.7 228.793 266.404 234.937 257.364C247.04 239.503 250.155 211.671 250.915 200.377C251.099 197.657 248.941 195.367 246.194 195.391L222.355 195.71Z" fill="#676BC4"/>
<path d="M115.584 247.772H190.681C193.685 247.723 205.004 247.086 208.854 240.03C214.789 229.128 217.315 206.563 218.063 198.478C218.223 196.763 217.855 195.085 217.058 193.578L212.104 184.219C211.809 183.692 211.049 183.827 210.939 184.378C209.59 191.067 204.587 214.991 201.95 216.731C198.885 218.764 105.97 217 102.414 216.731C99.3846 216.522 96.2208 191.912 95.3502 184.636C95.2766 184.035 94.455 183.876 94.1607 184.427L89.3659 193.492C88.5198 195.073 88.1765 196.837 88.3359 198.601C89.0471 206.612 91.5855 229.189 97.5207 240.018C101.273 247.086 112.579 247.723 115.584 247.772Z" fill="#4A52BD"/>
<path d="M197.965 247.662H106.362C106.092 247.662 105.835 247.662 105.602 247.637C96.3925 247.294 90.4328 238.462 93.8173 230.561L97.9867 220.81C98.3545 219.965 99.1761 217.809 99.1761 217.809C102.732 209.883 108.385 207.898 116.27 207.898H188.142C196.027 207.898 203.226 211.953 205.396 218.201C205.396 218.201 206.058 219.965 206.426 220.81L210.595 230.561C213.968 238.462 208.008 247.294 198.811 247.637C198.492 247.662 198.222 247.662 197.965 247.662Z" fill="#2F37A8"/>
<path d="M88.3727 198.527C88.2132 196.763 88.5811 194.975 89.4027 193.419L94.1975 184.378C94.4672 183.876 95.203 183.986 95.3624 184.513C95.3624 184.513 95.2521 182.847 91.8062 182.614H78.2927C75.9505 182.614 73.6451 183.3 71.6708 184.562L59.2977 192.574C56.6857 194.264 55.1529 197.241 55.3123 200.352C55.1283 197.633 57.2866 195.342 60.0334 195.367L83.8722 195.71C86.0918 195.734 87.9557 197.339 88.3849 199.483L88.4094 199.507C88.4217 199.189 88.3972 198.846 88.3727 198.527Z" fill="#868AE0"/>
<path d="M218.039 198.527C218.198 196.763 217.696 194.999 216.849 193.419L212.055 184.403C211.785 183.901 211.049 184.011 210.89 184.538C210.89 184.538 211 182.872 214.446 182.639H227.947C230.289 182.639 232.619 183.325 234.545 184.587L246.942 192.623C249.579 194.338 251.087 197.314 250.928 200.401C251.112 197.682 248.929 195.367 246.206 195.416L222.331 195.759C220.087 195.783 218.345 197.363 217.929 199.532C217.953 199.556 218.002 198.846 218.039 198.527Z" fill="#868AE0"/>
<path d="M214.078 216.657C214.078 216.657 217.953 217.11 220.749 219.977C223.545 222.843 222.625 227.67 220.749 229.177C217.499 231.761 211.258 231.761 206.561 231.761C201.864 231.761 198.725 230.708 198.725 230.708L204.734 215.824C204.734 215.812 208.511 215.15 214.078 216.657Z" fill="#AB534D"/>
<path d="M158.528 261.762C156.21 265.976 153.917 270.165 151.587 274.379C150.03 277.197 152.163 281.019 154.886 282.097C158.16 283.42 161.054 281.619 162.611 278.801C164.929 274.587 167.222 270.398 169.552 266.184C171.109 263.366 168.976 259.544 166.253 258.466C162.991 257.156 160.085 258.944 158.528 261.762Z" fill="#FCB58A"/>
<path d="M180.184 128.469C180.184 128.469 175.07 112.128 173.329 105.256C170.668 94.6103 163.408 88.2036 153.157 88.2036C142.77 88.2036 135.462 94.7083 132.58 105.305C129.649 116.207 125.799 127.6 125.799 127.6C125.345 129.045 126.068 130.601 127.466 131.152C130.765 132.475 137.669 134.79 153.132 134.582C166.928 134.398 174.077 132.451 177.658 132.083C179.473 131.912 180.662 130.184 180.184 128.469Z" fill="#110580"/>
<path d="M159.055 123.324H147.271V143.696C147.271 145.227 148.509 146.465 150.042 146.465H156.296C157.829 146.465 159.067 145.227 159.067 143.696V123.324H159.055Z" fill="#FCB58A"/>
<path d="M152.985 86.6233C157.049 86.6233 160.343 83.3326 160.343 79.2733C160.343 75.214 157.049 71.9233 152.985 71.9233C148.922 71.9233 145.627 75.214 145.627 79.2733C145.627 83.3326 148.922 86.6233 152.985 86.6233Z" fill="#110580"/>
<path d="M250.474 111.123H202.416C202.122 111.123 201.889 110.891 201.889 110.597V76.9581C201.889 76.6641 202.122 76.4313 202.416 76.4313H250.474C250.768 76.4313 251.001 76.6641 251.001 76.9581V110.633C251.001 110.891 250.768 111.123 250.474 111.123Z" fill="#EBDBCD"/>
<path d="M244.06 106.04H208.817C208.584 106.04 208.425 105.856 208.425 105.648V81.9316C208.425 81.6988 208.609 81.5396 208.817 81.5396H244.06C244.293 81.5396 244.453 81.7233 244.453 81.9316V105.648C244.465 105.856 244.281 106.04 244.06 106.04Z" fill="#FCFAF8"/>
<path d="M90.8988 208.168C90.8988 198.87 99.9732 192.414 109.465 190.013C128.827 185.089 162.82 191.52 162.82 191.52L144.855 202.925C144.855 202.925 161.336 207.506 165.456 208.376C169.577 209.246 196.346 216.228 196.788 216.914C197.241 217.576 186.928 231.222 186.928 231.222C186.928 231.222 136.737 231.798 121.31 229.801C105.859 227.768 90.8988 224.032 90.8988 208.168Z" fill="#FF8A91"/>
<path d="M142.599 203.06C150.753 204.958 162.881 208.462 168.338 210.177C173.93 211.916 176.064 213.607 176.064 213.607C176.064 213.607 165.91 222.513 161.422 240.14C158.896 250.051 154.064 263.305 153.218 266.221C153.083 266.674 153.194 267.139 153.512 267.482C154.493 268.536 156.762 270.827 159.178 272.15C162.133 273.779 167.541 275.58 168.093 274.783C168.093 274.783 191.699 251.704 200.908 238.45C210.117 225.195 218.603 214.452 214.961 205.228C211.981 197.67 205.384 193.211 194.409 190.895C177.633 187.392 158.111 188.764 158.111 188.764C158.111 188.764 156.983 191.667 152.544 196.775C148.877 201.051 142.415 203.035 142.599 203.06Z" fill="#FFADB2"/>
<path d="M135.633 123.667C133.733 123.667 133.684 118.155 133.684 117.53C133.684 116.905 133.733 111.393 135.633 111.393C137.534 111.393 137.583 116.905 137.583 117.53C137.583 118.155 137.534 123.667 135.633 123.667ZM135.633 112.446C135.29 112.789 134.714 114.602 134.714 117.53C134.714 120.433 135.265 122.271 135.633 122.614C135.977 122.271 136.553 120.458 136.553 117.53C136.528 114.602 135.977 112.765 135.633 112.446Z" fill="white"/>
<path d="M170.325 123.667C168.424 123.667 168.375 118.155 168.375 117.53C168.375 116.905 168.424 111.393 170.325 111.393C172.225 111.393 172.274 116.905 172.274 117.53C172.274 118.155 172.213 123.667 170.325 123.667ZM170.325 112.446C169.981 112.789 169.405 114.602 169.405 117.53C169.405 120.433 169.957 122.271 170.325 122.614C170.668 122.271 171.244 120.458 171.244 117.53C171.22 114.602 170.668 112.765 170.325 112.446Z" fill="white"/>
<path d="M153.169 127.71C163.964 127.71 172.716 118.967 172.716 108.183C172.716 97.3991 163.964 88.6568 153.169 88.6568C142.374 88.6568 133.622 97.3991 133.622 108.183C133.622 118.967 142.374 127.71 153.169 127.71Z" fill="#FCB58A"/>
<path d="M133.23 109.629C133.254 109.947 133.279 110.266 133.303 110.548C133.303 110.572 133.303 110.621 133.328 110.658C133.377 111.001 133.401 111.344 133.463 111.662V111.687C133.512 112.054 133.598 112.397 133.671 112.74C134.996 107.363 139.839 103.357 145.615 103.357C146.326 103.357 147.038 103.406 147.724 103.541C148.227 103.651 148.779 103.724 149.306 103.724C152.948 103.724 155.953 100.98 156.345 97.4523C156.345 97.4523 156.37 97.4523 156.37 97.4278C156.321 97.7953 156.259 98.1628 156.259 98.5548C156.259 102.72 159.631 106.064 163.776 106.064H163.801C167.86 106.885 171.109 109.886 172.299 113.806C172.532 112.936 172.753 112.042 172.875 111.148C172.875 111.123 172.875 111.074 172.875 111.038C172.924 110.67 172.986 110.278 173.01 109.874C173.01 109.764 173.035 109.69 173.035 109.58C173.059 109.163 173.084 108.71 173.084 108.294C173.084 107.926 173.084 107.559 173.059 107.216C173.059 107.105 173.035 107.007 173.035 106.897C173.01 106.628 173.01 106.395 172.986 106.138C172.986 106.027 172.961 105.905 172.937 105.795C172.912 105.562 172.887 105.317 172.826 105.084C172.802 104.974 172.777 104.851 172.777 104.741C172.728 104.508 172.704 104.263 172.642 104.031C172.618 103.92 172.593 103.822 172.569 103.712C172.52 103.479 172.434 103.21 172.385 102.977C172.36 102.904 172.336 102.793 172.311 102.708C172.238 102.438 172.152 102.181 172.078 101.911C172.054 101.838 172.029 101.777 172.005 101.703C171.894 101.409 171.796 101.127 171.686 100.858C171.661 100.833 171.661 100.784 171.637 100.748C171.502 100.429 171.367 100.111 171.22 99.8043C169.503 96.1416 166.683 93.0913 163.2 91.0578C162.096 90.4208 160.931 89.8696 159.717 89.4531C159.668 89.4286 159.644 89.4286 159.582 89.4041C159.239 89.2693 158.871 89.1713 158.528 89.0611C158.479 89.0366 158.417 89.0366 158.344 89.0121C157.547 88.8038 156.762 88.6446 155.94 88.5098C155.83 88.4853 155.732 88.4853 155.622 88.4853C155.303 88.4608 155.021 88.4118 154.702 88.3751C154.591 88.3751 154.469 88.3506 154.358 88.3506C153.966 88.3261 153.537 88.3016 153.12 88.3016C142.096 88.3016 133.156 97.2318 133.156 108.245C133.156 108.612 133.156 108.98 133.181 109.347C133.23 109.494 133.23 109.543 133.23 109.629Z" fill="#110580"/>
<path d="M148.767 276.964C148.35 277.491 144.757 282.415 144.438 285.024C144.205 286.837 143.114 290.157 142.378 294.592C141.642 299.014 139.312 308.397 146.204 310.896C152.004 313.028 153.402 309.426 154.641 307.736C155.879 306.045 159.313 292.717 159.57 291.296C160.073 288.393 163.286 279.206 163.286 279.206C163.654 278.446 163.838 278.152 163.016 277.919C161.483 277.466 159.141 276.658 157.424 275.861C155.572 274.992 153.709 273.277 152.654 272.431C152.286 272.113 152.078 271.905 151.808 272.321C151.832 272.333 148.791 276.939 148.767 276.964Z" fill="#C7645D"/>
<path d="M121.764 154.758C115.694 160.16 110.875 166.91 110.397 175.252C109.918 183.864 115.118 190.454 122.659 193.933C124.903 194.987 127.613 194.57 128.962 192.267C130.127 190.295 129.563 187.024 127.295 185.971C122.291 183.668 118.858 180.287 119.655 174.419C120.391 168.968 124.327 164.754 128.251 161.25C132.703 157.343 126.166 150.838 121.764 154.758Z" fill="#FCB58A"/>
<path d="M175.622 161.238C177.658 163.872 179.362 166.689 180.846 169.666C182.085 172.19 183.715 175.179 183.409 178.094C182.747 184.133 176.076 187.416 171.355 189.977C166.155 192.794 170.778 200.757 176.002 197.902C183.2 194.007 190.901 188.886 192.361 180.14C193.096 175.632 191.809 171.577 189.957 167.498C188.216 163.627 186.18 159.94 183.568 156.559C182.035 154.611 179.607 153.533 177.265 154.893C175.328 156.081 174.089 159.266 175.622 161.238Z" fill="#F0A173"/>
<path d="M172.189 140.609C167.173 137.975 161.532 136.652 159.055 136.26C158.295 139.507 156.603 141.295 152.961 141.295C149.245 141.295 147.97 139.421 147.258 136.101C146.498 136.126 144.193 136.652 143.665 136.701C137.129 137.277 132.617 139.948 129.269 142.287C124.621 145.497 119.667 151.793 117.632 154.488C117.055 155.248 117.08 156.301 117.681 157.049C118.784 158.372 120.66 160.417 122.561 161.691C125.933 163.933 131.55 163.933 131.55 163.933L132.396 156.191C132.396 156.191 130.973 164.619 130.679 170.205C130.336 176.293 130.679 181.745 130.679 181.745L173.329 182.614C173.329 182.614 174.886 176.575 173.967 168.233C173.734 166.077 171.379 156.828 171.379 156.828L173.353 162.965C173.353 162.965 176.333 163.076 181.422 160.834C182.98 160.148 185.138 158.494 186.413 157.49C186.99 157.036 187.1 156.203 186.646 155.615C184.402 152.467 177.278 143.267 172.189 140.609Z" fill="white"/>
<path d="M153.169 127.673C151.109 127.673 149.135 127.355 147.258 126.754V130.393C149.135 130.968 151.158 130.993 153.243 130.809C156.014 130.54 157.203 130.013 159.067 129.229V126.754C157.216 127.355 155.229 127.673 153.169 127.673Z" fill="#E3996D"/>
<path d="M227.898 72.0826C227.763 72.0826 227.604 72.0336 227.506 71.8988C227.322 71.6906 227.371 71.3721 227.579 71.2128L231.454 68.1013C231.663 67.9421 231.982 67.9666 232.141 68.1748C232.325 68.3831 232.276 68.7016 232.067 68.8608L228.192 71.9723C228.107 72.0213 228.009 72.0826 227.898 72.0826Z" fill="#D4BFA9"/>
<path d="M233.195 69.7566C233.768 69.3583 233.758 68.3559 233.173 67.5177C232.589 66.6795 231.651 66.3229 231.078 66.7212C230.506 67.1195 230.516 68.1219 231.1 68.9601C231.685 69.7984 232.623 70.155 233.195 69.7566Z" fill="#D4BFA9"/>
<path d="M152.911 200.708C159.717 202.288 166.597 203.525 173.378 205.216C176.75 206.061 180.098 207.004 183.372 208.168C184.132 208.437 184.905 208.719 185.641 209.013C186.009 209.172 186.401 209.307 186.769 209.466C187.039 209.577 187.713 209.736 187.934 209.969C188.253 210.385 187.296 211.292 187.063 211.573C186.487 212.259 185.935 212.921 185.371 213.607C176.983 223.725 169.307 234.444 163.028 246.02C159.546 252.452 156.541 259.116 154.089 265.988C153.745 266.931 155.278 267.36 155.622 266.404C160.11 253.701 166.646 241.819 174.273 230.781C178.124 225.22 182.244 219.842 186.56 214.636C187.088 213.974 187.64 213.35 188.167 212.713C188.67 212.137 189.221 211.549 189.454 210.814C189.663 210.128 189.589 209.393 189.062 208.891C188.535 208.364 187.664 208.156 187.002 207.886C183.703 206.539 180.306 205.461 176.873 204.517C169.123 202.386 161.177 201.014 153.341 199.201C152.335 198.968 151.906 200.475 152.911 200.708Z" fill="white"/>
<path d="M128.202 163.725C128.202 163.725 130.765 161.005 131.685 159.143C132.604 157.245 133.684 153.717 133.684 153.717C133.684 153.717 132.886 158.911 132.42 161.152C131.758 164.288 130.998 165.795 130.998 165.795L128.545 165.66C128.545 165.66 128.435 165.207 128.386 164.742C128.3 164.252 128.202 163.725 128.202 163.725Z" fill="#E0E0E0"/>
<path d="M175.622 164.668C175.622 164.668 173.403 161.691 172.691 159.719C171.98 157.747 171.318 154.109 171.318 154.109C171.318 154.109 171.502 159.352 171.71 161.618C172.029 164.803 172.605 166.383 172.605 166.383L175.058 166.518C175.058 166.518 175.217 166.065 175.328 165.624C175.463 165.195 175.622 164.668 175.622 164.668Z" fill="#E0E0E0"/>
<path d="M177.866 199.311H126.424C124.707 199.311 123.211 198.098 122.868 196.383L116.798 165.746C116.344 163.504 118.061 161.422 120.354 161.422H185.947C188.326 161.422 190.068 163.664 189.454 165.954L181.361 196.628C180.944 198.209 179.497 199.311 177.866 199.311Z" fill="#C5C6E3"/>
<path d="M158.43 181.451C158.221 184.195 155.867 186.436 153.181 186.436C150.496 186.436 148.141 184.219 147.908 181.487C147.675 178.756 150.042 176.502 153.157 176.502C156.284 176.477 158.638 178.707 158.43 181.451Z" fill="#E8E9FF"/>
<path d="M218.983 90.6291C220.614 89.0978 223.704 88.4118 225.519 89.2816C227.334 90.1513 226.709 89.9676 227.334 90.1513C227.972 90.3351 229.124 90.0778 230.204 90.9108C231.442 91.8908 233.76 94.5491 232.497 98.0281C231.418 100.98 227.959 103.504 223.79 102.793C219.621 102.083 217.561 99.6083 217.033 97.5013C216.42 95.0268 217.401 92.0991 218.983 90.6291Z" fill="#FF5856"/>
<path d="M227.714 91.1313C227.714 91.1313 227.579 86.9908 230.191 86.0476C232.803 85.1043 237.022 83.8058 236.838 84.0753C236.654 84.3081 235.624 88.8161 233.858 90.0043C231.197 91.8173 227.714 91.1313 227.714 91.1313Z" fill="#1F6771"/>
<path d="M224.967 91.6826C224.967 91.6826 225.36 89.6858 225.446 88.4731C225.605 86.0231 225.556 84.8103 225.556 84.8103L227.641 85.1533C227.641 85.1533 227.346 88.0198 227.113 89.0733C226.696 90.9476 226.059 92.0501 226.059 92.0501C226.059 92.0501 225.666 92.3686 225.323 92.1848C224.943 91.9766 224.967 91.6826 224.967 91.6826Z" fill="#6B4D3A"/>
<path d="M227.61 85.1389C227.667 84.8536 227.251 84.5298 226.679 84.4156C226.108 84.3015 225.599 84.4402 225.542 84.7255C225.485 85.0107 225.901 85.3346 226.472 85.4487C227.044 85.5629 227.553 85.4241 227.61 85.1389Z" fill="#8A634B"/>
</svg>
