<svg width="104" height="105" viewBox="0 0 104 105" fill="none" xmlns="http://www.w3.org/2000/svg">
<g clip-path="url(#clip0)">
<path d="M60.1232 104.696C66.0383 104.751 71.9534 104.447 77.8407 103.895C77.8407 103.95 77.8407 104.005 77.8685 104.088C76.6466 104.199 75.4524 104.309 74.2305 104.447C70.4816 104.834 66.7326 104.917 62.9836 105.027C60.2065 105.11 57.4573 104.806 54.7358 104.226C51.5144 103.536 48.2097 103.287 44.9328 102.956C38.629 102.265 32.3806 101.299 26.2712 99.5866C25.7991 99.4485 25.2437 99.3656 24.8549 99.1447C23.8829 98.5923 22.7721 98.3438 21.8834 97.6534C21.4113 97.2667 20.7171 97.2115 20.2172 96.742C18.8565 95.4992 17.1903 94.7536 15.6351 93.8698C13.1913 92.489 10.7198 91.0805 8.97023 88.8711C5.7211 84.8667 2.9163 80.6413 1.33339 75.8083C-0.305065 70.782 -0.499457 65.7004 1.02791 60.5637C1.6944 58.3543 2.19427 56.1173 3.44393 54.1289C4.08265 53.1071 4.86022 52.1681 5.63779 51.2291C6.58198 50.1244 7.33178 48.8817 8.4426 47.8874C9.99774 46.5342 11.5251 45.181 13.2191 43.9658C14.9686 42.6954 15.6073 40.7622 15.9961 38.7186C16.496 36.1778 16.6904 33.6094 17.4402 31.0963C19.4674 24.1092 23.5219 18.641 29.5203 14.4984C32.5473 12.3995 35.7686 10.632 38.9067 8.75408C41.8503 6.98659 44.9606 5.41242 47.9043 3.61731C54.5414 -0.442393 61.6506 -0.497628 68.982 0.689905C72.2311 1.21463 75.3136 2.34693 78.3406 3.5897C81.673 4.94293 85.0332 6.13046 88.088 8.09127C93.5587 11.5986 97.8631 16.1278 100.418 22.176C101.64 25.0758 102.862 28.0032 103.473 31.1239C104.056 34.1894 104.195 37.2549 103.695 40.3756C103.084 44.1315 101.945 47.777 101.307 51.5329C101.196 52.2509 101.14 52.969 101.14 53.7146C101.14 55.6478 100.89 57.5534 101.084 59.459C101.334 61.7788 101.695 64.071 101.918 66.3909C102.279 69.9258 102.195 73.4884 101.779 77.0234C101.418 80.3651 100.751 83.6239 99.8348 86.8551C99.2794 88.7883 98.5296 90.6386 97.5299 92.3785C97.0578 93.1794 96.8634 94.2841 95.7803 94.6983C93.9753 97.7086 90.8372 99.0618 88.0046 100.746C86.755 101.492 85.3942 101.962 84.089 102.569C83.0337 103.066 81.9229 103.039 80.8399 103.26C77.8962 103.867 74.897 104.033 71.9256 104.254C67.9822 104.502 64.0666 104.613 60.1232 104.696ZM22.3833 72.9361C25.327 71.0305 28.3817 69.3183 31.1587 66.8051C27.8263 68.3241 22.9387 71.721 22.3833 72.9361ZM33.9635 60.5913C33.8802 60.4808 33.7969 60.398 33.7136 60.2875C31.4087 62.0274 29.1037 63.7396 27.0487 65.7833C29.6036 64.3472 31.7141 62.3864 33.9635 60.5913ZM31.131 32.8914C33.0471 30.5992 35.3798 28.7488 37.1571 26.3738C34.7411 28.1689 32.7694 30.3782 31.131 32.8914ZM13.2469 55.6478C14.3299 55.3717 16.8848 52.1681 17.0792 50.8701C15.5518 52.3614 14.5243 54.1013 13.2469 55.6478ZM57.2351 47.0037C55.5411 47.4456 51.5699 49.9311 50.7924 51.0082C52.9862 49.6549 55.0412 48.3569 57.2351 47.0037ZM90.0319 12.8966C91.3371 14.4156 92.7256 15.8517 94.3641 17.0116C93.1699 15.3822 91.6703 14.0842 90.0319 12.8966ZM38.1291 19.8838C36.4629 21.1541 34.6578 22.3141 33.6303 24.2749C35.1299 22.8112 36.6573 21.3475 38.1291 19.8838ZM27.2154 63.6844C28.9649 62.3588 30.7422 61.116 32.2418 59.5142C30.4645 60.7846 28.715 62.055 27.2154 63.6844ZM49.9037 3.64493C51.0145 3.12021 52.1531 2.65072 53.3195 2.29169C54.4581 1.93267 55.6522 1.6565 56.8185 1.35271C54.2359 1.51842 51.0979 2.54025 49.9037 3.64493ZM50.2925 16.2935C48.4319 16.9287 45.0161 19.1381 44.5996 19.9942C45.5993 19.3314 46.5713 18.7791 47.4599 18.1439C48.4041 17.4535 49.3761 16.9011 50.2925 16.2935ZM29.4092 72.2733C29.437 72.3285 29.4925 72.3838 29.5203 72.439C30.9366 71.9971 32.0196 71.0581 33.1582 70.202C33.1304 70.1468 33.1027 70.0916 33.0471 70.0363C31.8252 70.782 30.6033 71.5276 29.4092 72.2733ZM67.9545 43.303C66.4549 44.2144 64.9553 45.1257 63.4279 46.0371C63.4557 46.0923 63.4834 46.1476 63.539 46.2028C65.1219 45.4295 66.6215 44.4905 67.9545 43.303ZM65.6773 48.2741C66.5659 48.1636 69.2874 46.4237 69.8428 45.7057C68.371 46.5894 67.038 47.4456 65.6773 48.2741ZM30.6033 58.879C30.5478 58.8238 30.52 58.7686 30.4645 58.6857C29.3537 59.5418 28.2706 60.398 27.3542 61.5026C28.4372 60.6465 29.5203 59.7628 30.6033 58.879ZM22.1889 48.716C21.4391 49.7654 20.6893 50.8425 19.9395 51.8919C20.967 51.0358 21.6891 49.9587 22.1889 48.716ZM6.24874 59.1276C6.80414 57.9124 7.33178 56.7249 7.88719 55.5097C7.10962 56.6144 6.49867 57.802 6.24874 59.1276ZM70.8981 26.1252C70.8703 26.0424 70.8426 25.9871 70.8148 25.9043C69.8151 26.3185 68.8153 26.7328 67.8156 27.147C67.8434 27.2023 67.8711 27.2575 67.8989 27.3404C68.8431 26.8433 69.9817 26.7604 70.8981 26.1252ZM68.2599 51.3948C69.2041 51.1463 70.0095 50.6768 70.7037 50.0416C69.704 50.2073 69.0097 50.8425 68.2599 51.3948ZM8.2482 51.3396C7.55394 51.7262 7.08185 52.3062 6.72083 52.969C6.66529 53.0794 6.55421 53.1899 6.69306 53.3004C6.83192 53.4109 6.943 53.3004 6.99854 53.2175C7.41509 52.5547 7.83165 51.9471 8.2482 51.3396ZM31.0477 21.6236C31.7419 20.9884 32.4362 20.3809 32.9083 19.58C32.0196 20.0218 31.5198 20.8227 31.0477 21.6236ZM10.0255 55.7307C9.2757 56.4487 8.66476 57.6639 8.66476 58.2991C9.13685 57.3877 9.58118 56.5592 10.0255 55.7307ZM84.0613 97.9019C83.1171 98.1505 82.1729 98.3714 81.2287 98.62C82.2284 98.5923 83.2004 98.4266 84.0613 97.9019ZM27.4375 68.4345C28.2706 68.0203 29.0482 67.5784 29.7147 66.9432C28.8816 67.3298 28.1318 67.827 27.4375 68.4345ZM101.14 30.9306C101.196 31.4277 100.807 31.98 101.334 32.5047C101.584 31.8972 101.362 31.4277 101.14 30.9306ZM59.0679 39.05C59.8177 38.829 60.4565 38.4148 61.0674 37.9453C60.3176 38.1939 59.6511 38.5805 59.0679 39.05ZM61.0396 104.061V104.088C61.8172 104.088 62.567 104.088 63.3446 104.088V104.061C62.567 104.061 61.8172 104.061 61.0396 104.061Z" fill="#C0AFDB"/>
</g>
<g clip-path="url(#clip1)">
<path d="M1.19665 83.9818C7.77121 87.3445 14.4196 89.2753 21.8622 89.1275C28.8246 88.9797 35.6115 87.1136 39.5267 80.8685C42.1214 76.7206 35.5653 72.9052 32.9798 77.0347C30.3297 81.2658 25.0387 81.5799 20.5233 81.5337C14.9275 81.4967 9.96888 79.954 5.03796 77.4227C0.698019 75.2147 -3.16176 81.7646 1.19665 83.9818Z" fill="#FCC7A7"/>
<path d="M102.345 77.4319C97.3865 79.9632 92.4555 81.4967 86.8598 81.5429C82.0951 81.5799 77.7828 81.0441 75.0865 76.6929C72.5195 72.5449 65.9634 76.3603 68.5397 80.5267C70.2203 83.2428 72.501 85.6262 75.3635 87.0582C78.577 88.6749 81.9566 89.0536 85.5024 89.1368C92.945 89.2846 99.6026 87.3538 106.168 83.9911C110.517 81.7647 106.676 75.2147 102.345 77.4319Z" fill="#FCC7A7"/>
<path d="M75.0866 57.4589C75.0866 57.4589 71.4207 45.7818 70.1926 40.8486C68.2811 33.2363 63.1009 28.6541 55.7876 28.6541C48.3636 28.6541 43.1372 33.3194 41.0872 40.8948C38.9911 48.6918 36.2394 56.8492 36.2394 56.8492C35.907 57.8839 36.4241 58.9832 37.4214 59.3989C39.7853 60.332 44.7162 61.9949 55.7692 61.8655C65.6402 61.7454 70.7374 60.3505 73.3044 60.0826C74.5879 59.9255 75.419 58.6783 75.0866 57.4589Z" fill="#110580"/>
<path d="M59.989 53.7636H51.5492V68.1383C51.5492 69.3393 52.528 70.3185 53.7284 70.3185H57.8098C59.0102 70.3185 59.989 69.3393 59.989 68.1383V53.7636Z" fill="#FCC7A7"/>
<path d="M43.2572 55.4634C41.8905 55.4634 41.8444 50.8628 41.8444 50.3362C41.8444 49.8096 41.8813 45.209 43.2572 45.209C44.6238 45.209 44.67 49.8096 44.67 50.3362C44.6515 50.8628 44.6053 55.4634 43.2572 55.4634ZM43.2572 46.0035C43.0078 46.336 42.6108 47.8049 42.6108 50.3177C42.6108 52.8305 43.0078 54.2994 43.2572 54.632C43.5065 54.2994 43.9035 52.8305 43.9035 50.3177C43.9035 47.8142 43.5065 46.3638 43.2572 46.0035Z" fill="white"/>
<path d="M68.0318 55.4634C66.6652 55.4634 66.619 50.8628 66.619 50.3362C66.619 49.8096 66.656 45.209 68.0318 45.209C69.3984 45.209 69.4446 49.8096 69.4446 50.3362C69.4261 50.8628 69.38 55.4634 68.0318 55.4634ZM68.0318 46.0035C67.7825 46.336 67.3854 47.8049 67.3854 50.3177C67.3854 52.8305 67.7825 54.2994 68.0318 54.632C68.2811 54.2994 68.6782 52.8305 68.6782 50.3177C68.6782 47.8142 68.2811 46.3638 68.0318 46.0035Z" fill="white"/>
<path d="M55.7784 56.8954C63.4841 56.8954 69.7309 50.6457 69.7309 42.9364C69.7309 35.2271 63.4841 28.9774 55.7784 28.9774C48.0727 28.9774 41.8259 35.2271 41.8259 42.9364C41.8259 50.6457 48.0727 56.8954 55.7784 56.8954Z" fill="#FCC7A7"/>
<path d="M41.5397 43.9526C41.5581 44.1836 41.5766 44.4053 41.6043 44.6178C41.6043 44.6362 41.6043 44.6824 41.6043 44.7009C41.6228 44.9503 41.6689 45.1813 41.7059 45.4307V45.4492C41.7428 45.6986 41.8074 45.9481 41.8536 46.216C42.7862 42.3544 46.249 39.5183 50.395 39.5183C50.9121 39.5183 51.4107 39.5552 51.9093 39.6384C52.2787 39.7215 52.6573 39.7584 53.0451 39.7584C55.6399 39.7584 57.7914 37.7907 58.0592 35.2594C58.0592 35.2594 58.0776 35.2594 58.0776 35.241C58.0407 35.5089 58.013 35.7768 58.013 36.0539C58.013 39.0194 60.4138 41.4213 63.3779 41.4213H63.3964C66.2958 42.0033 68.6228 44.1558 69.4723 46.955C69.657 46.3361 69.7862 45.6894 69.8878 45.0427C69.8878 45.0242 69.8878 45.0058 69.8878 44.9596C69.9247 44.6917 69.9525 44.4238 69.9709 44.1281C69.9709 44.0635 69.9894 43.9803 69.9894 43.9249C70.0079 43.6108 70.0263 43.3059 70.0263 42.9918C70.0263 42.7239 70.0263 42.4745 70.0078 42.2251C70.0078 42.1419 69.9894 42.0772 69.9894 41.9941C69.9709 41.8093 69.9709 41.6246 69.9524 41.4583C69.9524 41.3751 69.934 41.292 69.9155 41.2088C69.897 41.0426 69.8786 40.8578 69.8509 40.6915C69.8324 40.6084 69.8324 40.5252 69.8139 40.4421C69.777 40.2758 69.7493 40.091 69.7124 39.9247C69.6939 39.8416 69.6754 39.7769 69.6754 39.6938C69.6385 39.509 69.5923 39.3427 69.5277 39.158C69.5092 39.0933 69.4908 39.0379 69.4631 38.9732C69.3984 38.7884 69.343 38.6037 69.2784 38.4097C69.2599 38.3727 69.2414 38.308 69.2414 38.2619C69.1768 38.0586 69.0937 37.8461 69.0106 37.6614C68.9921 37.6429 68.9921 37.5967 68.9737 37.5782C68.8905 37.3473 68.789 37.1256 68.6874 36.8946C67.4685 34.2802 65.4555 32.0815 62.9624 30.6311C62.1775 30.1784 61.3464 29.7812 60.4784 29.4948C60.46 29.4948 60.4138 29.4763 60.3953 29.4763C60.146 29.3932 59.8967 29.31 59.6289 29.2453C59.592 29.2269 59.5458 29.2269 59.5089 29.2084C58.9456 29.0606 58.3731 28.9405 57.7914 28.8573C57.7083 28.8389 57.6436 28.8389 57.5605 28.8389C57.3297 28.8204 57.1265 28.8019 56.8957 28.7742C56.8126 28.7742 56.7295 28.7557 56.6464 28.7557C56.3601 28.7372 56.0646 28.7372 55.7507 28.7372C47.8741 28.7372 41.4843 35.1301 41.4843 43.0103C41.4843 43.2782 41.4842 43.5276 41.5027 43.7956C41.5397 43.8695 41.5397 43.9156 41.5397 43.9526Z" fill="#110580"/>
<path d="M69.3799 66.152C65.8341 64.0365 61.7712 63.3067 59.989 63.0388C59.4257 65.3575 58.2438 66.6509 55.6398 66.6509C52.9897 66.6509 52.0755 65.3206 51.5769 62.9371C51.0413 62.9556 49.3977 63.2882 49.0283 63.3713C44.2175 64.3044 42.2691 65.5516 39.8406 67.353C36.1285 70.1337 32.4996 75.8984 31.7147 77.201C31.6132 77.3672 31.6132 77.5705 31.7147 77.7368C32.1487 78.4019 33.3491 80.1202 35.0759 81.2381C37.4767 82.8363 40.3392 83.7047 40.3392 83.7047C40.3392 83.7047 41.5027 81.5891 41.8351 80.7762C42.2876 79.7138 43.4972 76.1478 43.4972 76.1478C43.4972 76.1478 42.3984 78.5313 42.3153 80.9979C42.2506 83.2612 43.0171 85.811 42.9617 87.3076C42.7954 90.7257 41.7797 93.6727 41.4288 95.003C41.3457 95.3171 41.5304 95.6497 41.8628 95.7051C43.7096 96.1208 49.2222 97.368 54.818 97.3403C62.0943 97.3403 67.0899 96.555 68.8536 96.2779C69.186 96.2132 69.3891 95.9084 69.306 95.5758C69.0198 94.4118 68.5212 92.4256 68.0225 87.982C67.6255 84.4992 68.041 83.834 68.0225 81.3859C68.0225 79.5844 67.2746 75.9723 67.2746 75.9723L67.9764 82.8548C67.9764 82.8548 70.5249 82.9748 74.1723 81.3859C75.4374 80.8223 77.0348 79.3904 77.6997 78.753C77.8844 78.5682 77.949 78.2726 77.8197 78.0509C76.9056 76.1663 72.8703 68.2214 69.3799 66.152Z" fill="white"/>
<path d="M55.7783 56.8954C54.3101 56.8954 52.8973 56.6644 51.5676 56.2487V58.8631C52.8973 59.2788 54.347 59.2973 55.8429 59.1495C57.8098 58.9647 58.6593 58.586 59.989 58.0132V56.2487C58.6685 56.6644 57.2557 56.8954 55.7783 56.8954Z" fill="#E3996D"/>
<path d="M67.4131 75.9169C67.4131 75.9169 67.9487 78.984 67.9948 80.4806C68.0133 81.3951 67.9948 82.8455 67.9948 82.8455C67.9948 82.8455 68.6781 82.8455 69.029 82.8086C69.3799 82.7901 69.7955 82.707 69.7955 82.707C69.7955 82.707 69.3799 81.3397 68.9459 79.9725C68.5304 78.7622 67.4131 75.9169 67.4131 75.9169Z" fill="#E0E0E0"/>
<path d="M43.5895 75.7505C43.5895 75.7505 42.8416 77.8846 42.5091 79.2518C42.2598 80.2865 42.3614 81.2011 42.306 81.4505C42.2229 81.8847 41.7889 83.0857 41.5765 83.6492C41.5119 83.8155 41.3272 83.9171 41.161 83.8802C40.8747 83.8155 40.4315 83.7139 40.0991 83.6123C39.5635 83.446 39.1849 83.2797 39.268 83.3259C39.268 83.3259 40.4315 81.663 41.2626 80.2588C41.9736 79.0486 43.5895 75.7505 43.5895 75.7505Z" fill="#E0E0E0"/>
</g>
<defs>
<clipPath id="clip0">
<rect width="104" height="105" fill="white"/>
</clipPath>
<clipPath id="clip1">
<rect x="29" y="15" width="54" height="61" fill="white"/>
</clipPath>
</defs>
</svg>
